<?xml version="1.0" encoding="UTF-8"?>
<svg width="12px" height="11px" viewBox="0 0 12 11" version="1.1" xmlns="http://www.w3.org/2000/svg" xmlns:xlink="http://www.w3.org/1999/xlink">
    <title>形状备份</title>
    <g id="页面-1" stroke="none" stroke-width="1" fill="none" fill-rule="evenodd">
        <path d="M0.861030693,6.27393304 L5.85203926,1.28282397 L10.8437146,6.27393304 C11.0274908,6.45770918 11.3254508,6.45770918 11.5092269,6.27393304 C11.693003,6.0901569 11.693003,5.79219691 11.5092269,5.60842078 L6.1851288,0.284322656 C6.11444568,0.213639526 6.02687144,0.170142216 5.93539926,0.153830724 L5.88015215,0.147306128 L5.8245932,0.147306128 C5.71357924,0.153830724 5.6044363,0.1995029 5.51961654,0.284322656 L0.195518428,5.60842078 C0.0117422907,5.79219691 0.0117422907,6.0901569 0.195518428,6.27393304 C0.379294565,6.45770918 0.677254555,6.45770918 0.861030693,6.27393304 Z M0.861030693,10.0386389 L5.85203926,5.04752985 L10.8437146,10.0386389 C11.0274908,10.222415 11.3254508,10.222415 11.5092269,10.0386389 C11.693003,9.85486279 11.693003,9.5569028 11.5092269,9.37312666 L6.1851288,4.04902854 C6.11444568,3.97834541 6.02687144,3.9348481 5.93539926,3.91853661 L5.88015215,3.91201201 L5.8245932,3.91201201 C5.71357924,3.91853661 5.6044363,3.96420879 5.51961654,4.04902854 L0.195518428,9.37312666 C0.0117422907,9.5569028 0.0117422907,9.85486279 0.195518428,10.0386389 C0.379294565,10.222415 0.677254555,10.222415 0.861030693,10.0386389 Z" id="形状备份" fill="#A5A5A5" fill-rule="nonzero" transform="translate(5.852373, 5.161889) scale(1, -1) rotate(-180.000000) translate(-5.852373, -5.161889) "></path>
    </g>
</svg>