<?xml version="1.0" encoding="UTF-8"?>
<svg width="34px" height="34px" viewBox="0 0 34 34" version="1.1" xmlns="http://www.w3.org/2000/svg" xmlns:xlink="http://www.w3.org/1999/xlink">
    <title>01图标/0101常用(线型)/上双箭头</title>
    <g id="01图标/0101常用(线型)/上双箭头" stroke="#a5a5a5" stroke-width="1" fill="#a5a5a5" fill-rule="evenodd">
        <path d="M6.70710678,19.0190822 L17.313,8.4129754 L27.9203102,19.0190822 C28.3108345,19.4096065 28.9439995,19.4096065 29.3345238,19.0190822 C29.7250481,18.6285579 29.7250481,17.9953929 29.3345238,17.6048686 L18.0208153,6.29116012 C17.8706136,6.14095847 17.6845184,6.04852669 17.49014,6.01386477 L17.3727399,6 L17.2546771,6 C17.0187725,6.01386477 16.7868437,6.11091814 16.6066017,6.29116012 L5.29289322,17.6048686 C4.90236893,17.9953929 4.90236893,18.6285579 5.29289322,19.0190822 C5.68341751,19.4096065 6.31658249,19.4096065 6.70710678,19.0190822 Z M6.70710678,27.0190822 L17.313,16.4129754 L27.9203102,27.0190822 C28.3108345,27.4096065 28.9439995,27.4096065 29.3345238,27.0190822 C29.7250481,26.6285579 29.7250481,25.9953929 29.3345238,25.6048686 L18.0208153,14.2911601 C17.8706136,14.1409585 17.6845184,14.0485267 17.49014,14.0138648 L17.3727399,14 L17.2546771,14 C17.0187725,14.0138648 16.7868437,14.1109181 16.6066017,14.2911601 L5.29289322,25.6048686 C4.90236893,25.9953929 4.90236893,26.6285579 5.29289322,27.0190822 C5.68341751,27.4096065 6.31658249,27.4096065 6.70710678,27.0190822 Z" id="形状" fill="#1D2939"></path>
    </g>
</svg>