<?xml version="1.0" encoding="UTF-8"?>
<svg width="34px" height="34px" viewBox="0 0 34 34" version="1.1" xmlns="http://www.w3.org/2000/svg" xmlns:xlink="http://www.w3.org/1999/xlink">
    <title>01图标/0101常用(线型)/下双箭头</title>
    <g id="01图标/0101常用(线型)/下双箭头" stroke="#a5a5a5" stroke-width="1" fill="#a5a5a5" fill-rule="evenodd">
        <path d="M6.70710678,14.2928932 L17.313,24.899 L27.9203102,14.2928932 C28.3108345,13.9023689 28.9439995,13.9023689 29.3345238,14.2928932 C29.7250481,14.6834175 29.7250481,15.3165825 29.3345238,15.7071068 L18.0208153,27.0208153 C17.8706136,27.1710169 17.6845184,27.2634487 17.49014,27.2981106 L17.3727399,27.3119754 L17.2546771,27.3119754 C17.0187725,27.2981106 16.7868437,27.2010573 16.6066017,27.0208153 L5.29289322,15.7071068 C4.90236893,15.3165825 4.90236893,14.6834175 5.29289322,14.2928932 C5.68341751,13.9023689 6.31658249,13.9023689 6.70710678,14.2928932 Z M6.70710678,6.29289322 L17.313,16.899 L27.9203102,6.29289322 C28.3108345,5.90236893 28.9439995,5.90236893 29.3345238,6.29289322 C29.7250481,6.68341751 29.7250481,7.31658249 29.3345238,7.70710678 L18.0208153,19.0208153 C17.8706136,19.1710169 17.6845184,19.2634487 17.49014,19.2981106 L17.3727399,19.3119754 L17.2546771,19.3119754 C17.0187725,19.2981106 16.7868437,19.2010573 16.6066017,19.0208153 L5.29289322,7.70710678 C4.90236893,7.31658249 4.90236893,6.68341751 5.29289322,6.29289322 C5.68341751,5.90236893 6.31658249,5.90236893 6.70710678,6.29289322 Z" id="形状" fill="#1D2939"></path>
    </g>
</svg>