<?xml version="1.0" encoding="UTF-8"?>
<svg width="18px" height="18px" viewBox="0 0 18 18" version="1.1" xmlns="http://www.w3.org/2000/svg" xmlns:xlink="http://www.w3.org/1999/xlink">
    <title>形状</title>
    <g id="页面-1" stroke="none" stroke-width="1" fill="none" fill-rule="evenodd">
        <g id="画板1" transform="translate(-243.000000, -693.000000)" fill="#FFFFFF" fill-rule="nonzero">
            <path d="M252,711 C247.032,711 243,706.968 243,702 C243,697.032 247.032,693 252,693 C252.504,693 252.909,693.405 252.909,693.909 C252.909,694.404 252.504,694.818 252,694.818 C248.373,694.818 245.304,697.536 244.863,701.136 C244.917,701.118 244.98,701.109 245.043,701.109 L245.142,701.109 C245.718,701.109 246.15,701.415 246.429,702.027 L247.491,702.027 C247.968,701.451 248.598,701.154 249.327,701.154 L249.39,701.154 C250.065,701.172 250.659,701.46 251.136,702.027 L252.576,702.027 C252.909,701.28 253.341,700.893 253.881,700.893 C254.529,700.893 255.033,701.271 255.384,702.036 L256.086,702.036 C256.725,700.839 257.463,700.236 258.309,700.236 C259.146,700.236 259.875,700.848 260.469,702.036 L261,702.036 C261,706.968 256.968,711 252,711 Z M251.55,701.109 C251.388,701.109 251.235,701.019 251.154,700.884 C251.073,700.74 251.073,700.569 251.154,700.425 C251.235,700.281 251.388,700.2 251.55,700.2 C251.793,700.2 252.009,700.398 252.009,700.659 C252.009,700.902 251.793,701.109 251.55,701.109 L251.55,701.109 Z M254.25,700.209 C254.088,700.209 253.935,700.119 253.854,699.984 C253.773,699.84 253.773,699.669 253.854,699.525 C253.935,699.381 254.088,699.3 254.25,699.3 C254.502,699.3 254.709,699.507 254.709,699.759 C254.7,700.002 254.502,700.209 254.25,700.209 Z M247.5,700.209 C247.176,700.209 246.879,700.038 246.717,699.759 C246.564,699.48 246.564,699.138 246.717,698.85 C246.879,698.571 247.176,698.4 247.5,698.4 C247.995,698.4 248.409,698.805 248.409,699.309 C248.409,699.804 248.004,700.209 247.5,700.209 L247.5,700.209 Z M250.65,698.409 C249.903,698.409 249.3,697.797 249.3,697.05 C249.3,696.303 249.912,695.7 250.65,695.7 C251.397,695.7 252.009,696.312 252.009,697.059 C252.009,697.797 251.397,698.409 250.65,698.409 L250.65,698.409 Z" id="形状"></path>
        </g>
    </g>
</svg>