<?xml version="1.0" encoding="UTF-8"?>
<svg width="24px" height="24px" viewBox="0 0 24 24" version="1.1" xmlns="http://www.w3.org/2000/svg" xmlns:xlink="http://www.w3.org/1999/xlink">
    <title>内涝</title>
    <g id="内涝" stroke="none" stroke-width="1" fill="none" fill-rule="evenodd">
        <path d="M12.1071158,18.3617329 C11.6899155,18.3617329 11.2928697,18.2187726 10.9643496,17.9523466 L10.2811085,17.4 C10.1501036,17.2916968 9.98685124,17.233213 9.82158347,17.233213 C9.65430024,17.233213 9.49306339,17.2916968 9.36004299,17.4 L8.68083277,17.9523466 C8.35029723,18.2209386 7.95325149,18.3617329 7.5380666,18.3617329 C7.12288171,18.3617329 6.72583597,18.2187726 6.39530043,17.9523466 L5.7160902,17.4 C5.58508527,17.2916968 5.42183296,17.233213 5.25656519,17.233213 C5.08928195,17.233213 4.92804511,17.2916968 4.7950247,17.4 L3.90419111,18.1212996 C3.80543354,18.201444 3.68652137,18.2447653 3.56357827,18.2447653 C3.38420228,18.2447653 3.22296543,18.1581227 3.11413055,18.0064982 C2.92669272,17.7400722 2.97506377,17.3588448 3.22296543,17.1574007 L4.11178356,16.433935 C4.14806185,16.4036101 4.18837106,16.3776173 4.23069573,16.3516245 L4.27906679,16.3191336 L4.33751515,16.2801444 L4.33751515,15.6303249 L4.05938158,15.6303249 C3.74698519,15.6303249 3.49505261,15.3574007 3.49505261,15.0238267 C3.49505261,14.6880866 3.74900065,14.4173285 4.05938158,14.4173285 L4.33549968,14.4173285 L4.33549968,12.8924188 L4.05938158,12.8924188 C3.74698519,12.8924188 3.49505261,12.6194946 3.49505261,12.2859206 C3.49505261,11.9523466 3.74900065,11.6794224 4.05938158,11.6794224 L4.33549968,11.6794224 L4.33549968,10.1545126 L4.05938158,10.1545126 C3.74698519,10.1545126 3.49505261,9.88158845 3.49505261,9.54801444 C3.49505261,9.21444043 3.74900065,8.94151625 4.05938158,8.94151625 L4.33348422,8.94151625 L4.33348422,3.60649819 C4.33348422,3.27075812 4.58743226,3 4.8978132,3 C5.20819413,3 5.46214217,3.27292419 5.46214217,3.60649819 L5.46214217,4.01805054 L10.3173868,5.53862816 C10.5451338,5.6101083 10.7063707,5.82888087 10.7224944,6.0801444 C10.7386181,6.33357401 10.6055977,6.56967509 10.3899434,6.67364621 L5.46214217,9.02815884 L5.46214217,16.0223827 L5.5629152,16.0418773 C5.72213659,16.0722022 5.87732705,16.1241877 6.02445568,16.1978339 L6.14739878,16.2584838 L7.5380666,11.9025271 L6.90118105,11.666426 C6.70165044,11.5949458 6.5605682,11.4129964 6.52832083,11.1920578 C6.49607346,10.9689531 6.57870735,10.7480144 6.74397512,10.6137184 L10.5451338,7.49025271 C10.6438914,7.40794224 10.764819,7.36245487 10.8877621,7.36245487 C10.9502414,7.36245487 11.0127207,7.3732852 11.0711691,7.39494585 L19.3446349,10.4469314 C19.3526967,10.4534296 19.3647895,10.4599278 19.3768822,10.4642599 C19.4131605,10.4794224 19.4474234,10.4967509 19.4796707,10.5205776 C19.4877326,10.5249097 19.493779,10.5292419 19.4998253,10.5314079 C19.5340882,10.5595668 19.5643201,10.5920578 19.594552,10.6245487 L19.5985829,10.6288809 C19.6046293,10.6353791 19.6106757,10.6440433 19.6167221,10.6505415 L19.620753,10.6592058 C19.642923,10.6895307 19.6610622,10.7198556 19.673155,10.7480144 L19.6912941,10.7870036 C19.7074178,10.8303249 19.7235415,10.8758123 19.7295879,10.9212996 L20.5176329,15.7429603 C20.5518958,15.9574007 20.4813547,16.167509 20.3261642,16.3083032 C20.3181023,16.3169675 20.3060096,16.3256318 20.2939168,16.334296 C20.2838395,16.3407942 20.2757777,16.3472924 20.2657004,16.3537906 L20.1286491,16.4577617 L20.7756119,16.9841155 C20.9368488,17.1140794 21.0214981,17.3285199 20.9952971,17.5429603 C20.9711116,17.7574007 20.8401066,17.9415162 20.6566997,18.0259928 C20.5861586,18.0584838 20.513602,18.0736462 20.4370145,18.0736462 C20.3140714,18.0736462 20.1931438,18.0303249 20.0964017,17.9501805 L19.4171915,17.3978339 C19.2861865,17.2895307 19.1229342,17.2310469 18.9576664,17.2310469 C18.7903832,17.2310469 18.6291464,17.2895307 18.496126,17.3978339 L17.8128848,17.9480144 C17.4823493,18.2166065 17.0853035,18.3574007 16.6701186,18.3574007 C16.2549338,18.3574007 15.857888,18.2144404 15.5273525,17.9480144 L14.8481422,17.3956679 C14.7131064,17.2873646 14.553885,17.2310469 14.3886172,17.2310469 C14.221334,17.2310469 14.0641281,17.2873646 13.9290922,17.3956679 L13.2478665,17.9501805 C12.9213619,18.2187726 12.5243162,18.3617329 12.1071158,18.3617329 Z M14.3180761,16.0180505 L14.4813284,16.0267148 C14.8682969,16.0462094 15.2351107,16.1870036 15.5333989,16.4296029 L16.2126091,16.9819495 C16.343614,17.0902527 16.5068663,17.1487365 16.6721341,17.1487365 C16.8394173,17.1487365 17.0006542,17.0902527 17.1336746,16.9819495 L17.8128848,16.4296029 C17.9620289,16.3061372 18.133343,16.2064982 18.3268273,16.1306859 L18.3812447,16.1090253 C18.5340823,16.0541516 18.7525006,16.0238267 19.0364996,16.0180505 C19.114465,16.0164648 19.2379133,16.0164648 19.4068443,16.0180505 L19.2378155,14.9155235 L18.7803059,12.1169675 L15.7188212,14.633935 C15.6200637,14.7162455 15.499136,14.7595668 15.3761929,14.7595668 C15.3137136,14.7595668 15.2532498,14.7487365 15.1948015,14.7270758 L14.7796166,14.5732852 L14.3180761,16.0180505 Z M7.20148468,17.0642599 C7.30628863,17.1205776 7.42520081,17.1509025 7.54209752,17.1509025 C7.70736529,17.1509025 7.8706176,17.0924188 7.99960708,16.9841155 L8.67881731,16.431769 C9.00935285,16.1631769 9.40639859,16.0223827 9.82158347,16.0223827 C10.2367684,16.0223827 10.6338141,16.165343 10.9643496,16.431769 L11.6435599,16.9841155 C11.7745648,17.0902527 11.9378171,17.1487365 12.1030849,17.1487365 C12.2703681,17.1487365 12.431605,17.0902527 12.5626099,16.9841155 L12.8971764,16.7111913 L13.7053761,14.1833935 L8.60626072,12.301083 L7.10675803,17.0122744 L7.20148468,17.0642599 Z M12.1071158,21 C11.6899155,21 11.2928697,20.8570397 10.9643496,20.5906137 L10.2851394,20.0382671 C10.1541345,19.9299639 9.99088217,19.8714801 9.8256144,19.8714801 C9.65833116,19.8714801 9.49709432,19.9299639 9.36407392,20.0382671 L8.68486369,20.5906137 C8.35432815,20.8592058 7.95728241,21 7.54209752,21 C7.12691263,21 6.72986689,20.8570397 6.39933135,20.5906137 L5.72213659,20.0382671 C5.59113165,19.9299639 5.42787934,19.8714801 5.26261157,19.8714801 C5.09532834,19.8714801 4.93409149,19.9299639 4.80107109,20.0382671 L3.91225296,20.7617329 C3.81349539,20.8418773 3.69458321,20.8851986 3.57365557,20.8851986 C3.39427958,20.8851986 3.23304273,20.7963899 3.12420786,20.6447653 C2.93677002,20.3783394 2.98514107,19.9971119 3.23304273,19.7956679 L4.12186086,19.0722022 C4.4523964,18.8036101 4.84944214,18.6628159 5.26462703,18.6628159 C5.67981191,18.6628159 6.07685765,18.8057762 6.4073932,19.0722022 L7.08660342,19.6245487 C7.21760836,19.7306859 7.38086067,19.7891697 7.54612844,19.7891697 C7.71341167,19.7891697 7.87464852,19.7306859 8.00565346,19.6245487 L8.68486369,19.0722022 C9.01338377,18.801444 9.40841405,18.6606498 9.8256144,18.6606498 C10.2367684,18.6606498 10.6438914,18.8079422 10.9683806,19.0722022 L11.6475908,19.6245487 C11.7785957,19.7306859 11.941848,19.7891697 12.1071158,19.7891697 C12.274399,19.7891697 12.4356359,19.7306859 12.5666408,19.6245487 L13.2458511,19.0722022 C13.5703402,18.8057762 13.9774633,18.6606498 14.3886172,18.6606498 C14.7997712,18.6606498 15.2048788,18.8079422 15.5293679,19.0700361 L16.2085782,19.6223827 C16.3395831,19.7306859 16.5028354,19.7891697 16.6681032,19.7891697 C16.8353864,19.7891697 16.9966233,19.7306859 17.1296437,19.6223827 L17.8088539,19.0700361 C18.1393894,18.801444 18.5364352,18.6606498 18.9516201,18.6606498 C19.3668049,18.6606498 19.7638507,18.8036101 20.0943862,19.0700361 L20.7735964,19.6223827 C20.8945241,19.7198556 20.9711116,19.8628159 20.9912662,20.0231047 C21.0114208,20.1833935 20.9711116,20.3436823 20.8804159,20.4693141 C20.771581,20.6231047 20.6083287,20.7119134 20.4309681,20.7119134 C20.3060096,20.7119134 20.1891129,20.6685921 20.0923708,20.5884477 L19.4171915,20.0361011 C19.2861865,19.9277978 19.1229342,19.8693141 18.9576664,19.8693141 C18.7903832,19.8693141 18.6291464,19.9277978 18.496126,20.0361011 L17.8169157,20.5884477 C17.4863802,20.8570397 17.0893344,20.9978339 16.6741496,20.9978339 C16.2589647,20.9978339 15.8619189,20.8548736 15.5313834,20.5884477 L14.8521732,20.0361011 C14.7171373,19.9277978 14.5579159,19.8714801 14.3926481,19.8714801 C14.2253649,19.8714801 14.068159,19.9277978 13.9331231,20.0361011 L13.249882,20.5906137 C12.9213619,20.8570397 12.5243162,21 12.1071158,21 Z" id="形状" fill="#FFFFFF" fill-rule="nonzero"></path>
    </g>
</svg>