<?xml version="1.0" encoding="UTF-8"?>
<svg width="24px" height="24px" viewBox="0 0 24 24" version="1.1" xmlns="http://www.w3.org/2000/svg" xmlns:xlink="http://www.w3.org/1999/xlink">
    <title>农村供水</title>
    <g id="农村供水" stroke="none" stroke-width="1" fill="none" fill-rule="evenodd">
        <path d="M14.3435304,18.1258073 C14.3435305,18.1258073 15.1960295,19.5756669 15.1960295,20.0665284 C15.2119476,20.3942855 15.0532411,20.7045014 14.7832558,20.8733578 C14.5132704,21.0422141 14.1759708,21.0422141 13.9059854,20.8733578 C13.6360001,20.7045014 13.4772937,20.3942855 13.4932117,20.0665284 C13.4932117,19.5779394 14.3435304,18.1258073 14.3435304,18.1258073 Z M10.172608,3 C10.2136173,3.02478495 10.2516731,3.05453379 10.2859838,3.08862777 L10.2968854,3.09999032 L10.3143278,3.12044289 C10.3334288,3.14333693 10.3509168,3.16764036 10.3666551,3.19316311 L10.3797369,3.21588817 L10.3797369,3.29315341 C10.7164794,4.23923263 11.2642728,5.08827131 11.9779001,5.77018618 C12.3620757,6.13221679 12.8050569,6.42001875 13.2860828,6.62010384 C13.8113794,6.03403157 14.2223585,5.34711357 14.4961518,4.59757251 L14.4961518,4.52030727 L14.5092336,4.49758218 C14.5249593,4.47205031 14.542448,4.44774596 14.5615609,4.42486196 L14.5920852,4.39304686 C14.6263959,4.35895288 14.6644517,4.32920404 14.705461,4.30441909 L15.2810614,4.30441909 C15.3220594,4.32922171 15.3601133,4.35896905 15.3944372,4.39304686 L15.407519,4.40668191 L15.4249615,4.42713448 C15.4440625,4.45002852 15.4615505,4.47433195 15.4772888,4.4998547 L15.4903706,4.52030727 L15.4903706,4.59757251 C15.8287279,5.52516299 16.3769874,6.35387497 17.0885338,7.01324756 C17.7949524,7.66091208 18.5645999,8.02905824 19.2535761,8.0495108 L19.25,8.049 L19.3403444,8.03419692 C19.6126486,8.00971484 19.8699892,8.17501524 19.9714038,8.43955214 L19.9992402,8.53128232 C20.0787141,8.88019206 19.8717691,9.23019007 19.5370157,9.31302477 L19.5195733,9.31302477 C18.5493378,9.28348217 17.5071522,8.80398318 16.5870637,7.96088303 C16.0530137,7.46672368 15.5936061,6.89135502 15.2243735,6.25423019 C14.8551136,6.89133482 14.3957092,7.46669945 13.8616832,7.96088303 C13.0222659,8.73353545 12.1545048,9.22894201 11.354333,9.39483502 C11.2642138,9.41301508 11.1748213,9.42740762 11.0861556,9.43801265 L11.0861556,17.5167755 C11.0861556,17.8656852 10.8147843,18.1485324 10.4800309,18.1485324 C10.1452775,18.1485324 9.87390629,17.8656852 9.87390629,17.5167755 L9.87390629,9.2902997 C9.54240859,9.15825253 9.24414759,8.94918967 9.0017845,8.67899528 C8.82295983,8.52324801 8.74563917,8.27443464 8.80289696,8.03898674 C8.86015475,7.80353884 9.04185046,7.62315495 9.27026254,7.57499546 C9.49867462,7.52683598 9.73335061,7.61943009 9.87390629,7.81317006 C10.4931128,8.49946722 11.5069543,8.17222619 12.4161413,7.52456167 C12.0246516,7.30038279 11.6589138,7.03049005 11.3259891,6.72009415 C10.786953,6.21708797 10.3271126,5.6289076 9.96329877,4.97708119 C9.59948491,5.6289076 9.13964457,6.21708797 8.60060847,6.72009415 C7.71758516,7.52910668 6.74298906,7.99269813 5.82290058,8.06314585 L5.82290058,16.264624 C5.82290058,16.6135338 5.55152933,16.896381 5.21677594,16.896381 C4.88202255,16.896381 4.6106513,16.6135338 4.6106513,16.264624 L4.6106513,7.90407035 C3.93361327,7.65526187 3.3827054,7.13027431 3.08443816,6.4496658 C2.96755307,6.24371201 2.97233875,5.98660347 3.09680003,5.78552996 C3.2212613,5.58445644 3.44403447,5.4739321 3.67224433,5.50003506 C3.90045419,5.52613802 4.09492866,5.68438773 4.1745904,5.90880911 C4.358682,6.35606425 4.74318185,6.67939497 5.20151381,6.77236181 C5.96025976,6.93598232 6.92831495,6.56101865 7.78735491,5.77245868 C8.50098217,5.09054381 9.04877563,4.24150514 9.38551809,3.29542593 L9.38551809,3.21816069 L9.39859991,3.19543561 C9.41955504,3.16126248 9.44365203,3.12929664 9.47054996,3.09999032 L9.48363179,3.08635527 L9.50325453,3.06817521 C9.52452018,3.04835411 9.54710655,3.03012842 9.57084398,3.01363505 L9.59046672,3 Z M18.1416208,12.2263789 L18.1416208,14.0671097 L19.6961779,14.0671097 L19.6961779,12.7967782 L21,12.7967782 L21,17.3145223 L19.6918173,17.3145223 L19.6918173,15.785125 L17.1103368,15.785125 C16.0266028,15.785125 15.1480628,16.7008175 15.1480628,17.8303814 L13.5062935,17.8303814 C13.5084416,15.8682068 14.9566834,14.2370515 16.8334381,14.0830172 L16.8334381,12.2263789 L18.1416208,12.2263789 Z M19.5784415,10.4810934 L19.5784415,11.8445977 L15.4227812,11.8445977 L15.4227812,10.4810934 L19.5784415,10.4810934 Z M7.6347336,9.19939941 L7.6347336,10.4947285 L6.38977975,10.4947285 L6.38977975,9.19939941 L7.6347336,9.19939941 Z" id="形状结合" fill="#FFFFFF" fill-rule="nonzero"></path>
    </g>
</svg>