<?xml version="1.0" encoding="UTF-8"?>
<svg width="24px" height="24px" viewBox="0 0 24 24" version="1.1" xmlns="http://www.w3.org/2000/svg" xmlns:xlink="http://www.w3.org/1999/xlink">
    <title>地块</title>
    <g id="地块" stroke="none" stroke-width="1" fill="none" fill-rule="evenodd">
        <path d="M21.9965918,19.4354674 L21.1033911,13.5116742 L8.1636456,15.8690788 L9.03740477,19.9993933 L21.5405484,19.9993933 C21.6775248,19.9970094 21.806688,19.9333338 21.8942962,19.8250009 C21.9819044,19.7166679 22.0192554,19.5744384 21.9965918,19.4354674 L21.9965918,19.4354674 Z M20.7789948,11.3753834 L19.7358164,4.34430717 C19.6780824,4.12755296 19.4786907,3.98362864 19.2608869,4.00149506 L15.2331516,4.00149506 L18.443786,11.7387643 L20.7789948,11.3753834 Z M13.2006755,4.00149506 L4.72582268,4.00149506 C4.50917038,3.98789472 4.31213588,4.13011753 4.25089318,4.34430717 L3.58432549,8.79686507 L2.72945242,14.4795471 L16.2391133,12.1215711 L13.2006755,4.00149506 Z M2.38839194,16.8369516 L2.00844835,19.4360388 C1.98210185,19.5755914 2.0180872,19.7199368 2.10647068,19.8292284 C2.19485417,19.9385201 2.32628862,20.0011997 2.46449175,19.9999826 L6.41612728,19.9999826 L5.77011207,16.2724544 L2.38839194,16.8369516 Z" id="形状" fill="#FFFFFF" fill-rule="nonzero"></path>
    </g>
</svg>