<?xml version="1.0" encoding="UTF-8"?>
<svg width="24px" height="24px" viewBox="0 0 24 24" version="1.1" xmlns="http://www.w3.org/2000/svg" xmlns:xlink="http://www.w3.org/1999/xlink">
    <title>地灾</title>
    <g id="地灾" stroke="none" stroke-width="1" fill="none" fill-rule="evenodd">
        <path d="M8.78471706,4.29116166 L8.20546502,3 L7.05176301,3 L6.56435093,4.83207196 L8.30090655,4.83207196 L8.78471706,4.29183696 L8.78471706,4.29116166 Z M17.0893306,15.075603 L18.0569516,13.6723425 L17.9609098,12.7012701 L16.8024057,12.059741 L15.6439017,13.7851166 L17.0893306,15.0762782 L17.0893306,15.075603 Z M16.5190825,7.31647769 L16.5190825,6.34608056 L14.2975158,5.48170455 L13.1402122,7.21045657 L14.3965589,8.71906282 L16.5190825,7.3151271 L16.5190825,7.31647769 Z M20.998306,17.1230936 L20.998306,16.0473507 L20,15.1829747 L19,16.0473507 L19.2766798,17.7727262 L21,17.1230936 L20.998306,17.1230936 L20.998306,17.1230936 Z M19.6608495,19.0456549 L16.7273731,16.8306914 C16.6520745,16.7429274 16.5618443,16.6731112 16.4620576,16.6254021 L11.8820648,14.324001 L10.5284758,10.9779204 L8.79011941,10.3323396 L7.82309864,12.2684068 L9.75413888,15.1829747 L7.82309864,17.661978 L8.79011941,15.3977181 L7.24504712,12.7012701 L7.72705685,9.90825513 L6.66579507,9.58006236 L4.74736032,5.12312357 C4.59471598,4.76418086 4.27245442,4.5380498 3.91960014,4.53898859 C3.41177917,4.53831918 3,4.99751893 3,5.56409039 L3,18.9511138 L3.01440627,19.1969207 C3.12665511,20.2294449 3.91479805,21.0046821 4.84880446,20.9999979 L19.149427,20.9189198 C19.4523797,20.9179104 19.7355601,20.7495337 19.9069566,20.4684989 C20.0436177,20.2436484 20.0945116,19.966577 20.0482646,19.6992047 C20.0020177,19.4318324 19.862485,19.1964479 19.6608495,19.0456549 Z" id="形状" fill="#FFFFFF" fill-rule="nonzero"></path>
    </g>
</svg>