<?xml version="1.0" encoding="UTF-8"?>
<svg width="24px" height="24px" viewBox="0 0 24 24" version="1.1" xmlns="http://www.w3.org/2000/svg" xmlns:xlink="http://www.w3.org/1999/xlink">
    <title>水井</title>
    <g id="水井" stroke="none" stroke-width="1" fill="none" fill-rule="evenodd">
        <path d="M2.38898263,14.490986 C2.95195747,15.0527487 3.67792503,15.5352771 4.5018882,15.9305587 C6.28980831,16.7896728 8.65470264,17.3033608 11.2395871,17.3870465 L11.2395871,20 C6.07481792,19.8584465 2,18.2737592 2,16.0222568 C2,15.8824839 2.01199949,15.7507233 2.04999778,15.6154017 L2.07999644,15.5067883 Z M21.6111237,14.4963276 L21.9091104,15.4702871 C21.9148707,15.494811 21.9215407,15.5191584 21.9291095,15.5432896 C21.9813996,15.6985211 22.0050393,15.8602807 21.9991063,16.0222568 C21.9991063,18.27643 17.9142889,19.8620076 12.7395201,20 L12.7395201,17.3879368 C15.3314043,17.3060316 17.7022983,16.7959047 19.4972181,15.9367906 C20.3211813,15.541509 21.0481488,15.0589806 21.6111237,14.4963276 Z M15.1984102,13.2713109 L15.8683803,15.6973069 C14.6954327,15.9341198 13.3874911,16.0640997 11.9995532,16.0640997 C10.6256146,16.0640997 9.32967248,15.9359003 8.16572449,15.7017583 L8.8366945,13.2757623 C9.87963843,13.4467426 10.9380782,13.5316787 11.9985532,13.5294903 C13.1135034,13.5294903 14.1914552,13.4404629 15.1984102,13.2713109 Z M3.46193468,10.9637213 C3.96091239,11.4480303 4.59188418,11.8646784 5.29985254,12.2065435 C5.92182476,12.507456 6.62079353,12.7611841 7.37775971,12.9632762 L6.72178901,15.3385266 C6.1738135,15.1693746 5.66783609,14.9735144 5.2138564,14.7553973 C4.04690854,14.1945248 3.27594299,13.5214779 2.90495958,12.7932339 L3.46193468,10.9637213 Z M20.5351718,10.9717338 L21.0931468,12.7985756 C20.7221634,13.5286 19.9511979,14.2025373 18.7862499,14.7607389 C18.3125477,14.9851533 17.8197092,15.1759664 17.3123158,15.3314044 L16.6553451,12.956154 C17.3983119,12.7567327 18.0862812,12.507456 18.6982538,12.2118852 C19.4062222,11.8709103 20.037194,11.4551524 20.5351718,10.9717338 Z M4.94086859,6.10193635 C4.89955642,6.24077275 4.87904622,6.38386325 4.87987131,6.52748719 C4.87987131,8.17538392 7.66474688,9.35766749 11.2395871,9.50456266 L11.239,12.178 L10.8295729,12.15702 C9.06342364,12.0466271 7.49530852,11.6880594 6.287961,11.1583951 L6.01582057,11.0331627 C4.96486752,10.5257066 4.28889774,9.91675939 3.97891159,9.26596928 Z M19.096236,6.25684398 L20.0181949,9.27665257 C19.7062088,9.9274427 19.031239,10.5328288 17.9842857,11.0376141 C16.6523453,11.6803917 14.8204271,12.0988204 12.7405201,12.178945 L12.7405201,9.50545292 C16.3233599,9.36300911 19.120235,8.18695748 19.120235,6.52748719 C19.120235,6.43489873 19.1122353,6.34587136 19.096236,6.25684398 Z M11.9995532,4 C15.2983772,4 17.9895027,4.88717488 18.1405883,6.00209638 L18.1472785,6.10015578 C18.1472785,7.26107276 15.3954014,8.20120187 11.9995532,8.20120187 C8.60370492,8.20120187 5.85182788,7.26107278 5.85182788,6.10104607 C5.85182788,4.94012909 8.60370492,4 11.9995532,4 Z M11.9995532,5.48586689 C10.3976248,5.48586689 9.09968276,5.76185176 9.09968276,6.10015578 C9.09968276,6.43845981 10.3976248,6.71444468 11.9995532,6.71444468 C13.6014816,6.71444468 14.8994236,6.43845981 14.8994236,6.10015578 C14.8994236,5.76185176 13.6014816,5.48586689 11.9995532,5.48586689 Z" id="形状结合" fill="#FFFFFF" fill-rule="nonzero"></path>
    </g>
</svg>