<?xml version="1.0" encoding="UTF-8"?>
<svg width="24px" height="24px" viewBox="0 0 24 24" version="1.1" xmlns="http://www.w3.org/2000/svg" xmlns:xlink="http://www.w3.org/1999/xlink">
    <title>水库</title>
    <g id="水库" stroke="none" stroke-width="1" fill="none" fill-rule="evenodd">
        <path d="M12,21 C7.032,21 3,16.968 3,12 C3,7.032 7.032,3 12,3 C12.504,3 12.909,3.405 12.909,3.909 C12.909,4.404 12.504,4.818 12,4.818 C8.373,4.818 5.304,7.536 4.863,11.136 C4.917,11.118 4.98,11.109 5.043,11.109 L5.142,11.109 C5.718,11.109 6.15,11.415 6.429,12.027 L7.491,12.027 C7.968,11.451 8.598,11.154 9.327,11.154 L9.39,11.154 C10.065,11.172 10.659,11.46 11.136,12.027 L12.576,12.027 C12.909,11.28 13.341,10.893 13.881,10.893 C14.529,10.893 15.033,11.271 15.384,12.036 L16.086,12.036 C16.725,10.839 17.463,10.236 18.309,10.236 C19.146,10.236 19.875,10.848 20.469,12.036 L21,12.036 C21,16.968 16.968,21 12,21 Z M11.55,11.109 C11.388,11.109 11.235,11.019 11.154,10.884 C11.073,10.74 11.073,10.569 11.154,10.425 C11.235,10.281 11.388,10.2 11.55,10.2 C11.793,10.2 12.009,10.398 12.009,10.659 C12.009,10.902 11.793,11.109 11.55,11.109 L11.55,11.109 Z M14.25,10.209 C14.088,10.209 13.935,10.119 13.854,9.984 C13.773,9.84 13.773,9.669 13.854,9.525 C13.935,9.381 14.088,9.3 14.25,9.3 C14.502,9.3 14.709,9.507 14.709,9.759 C14.7,10.002 14.502,10.209 14.25,10.209 Z M7.5,10.209 C7.176,10.209 6.879,10.038 6.717,9.759 C6.564,9.48 6.564,9.138 6.717,8.85 C6.879,8.571 7.176,8.4 7.5,8.4 C7.995,8.4 8.409,8.805 8.409,9.309 C8.409,9.804 8.004,10.209 7.5,10.209 L7.5,10.209 Z M10.65,8.409 C9.903,8.409 9.3,7.797 9.3,7.05 C9.3,6.303 9.912,5.7 10.65,5.7 C11.397,5.7 12.009,6.312 12.009,7.059 C12.009,7.797 11.397,8.409 10.65,8.409 L10.65,8.409 Z" id="形状" fill="#FFFFFF" fill-rule="nonzero"></path>
    </g>
</svg>