<?xml version="1.0" encoding="UTF-8"?>
<svg width="24px" height="24px" viewBox="0 0 24 24" version="1.1" xmlns="http://www.w3.org/2000/svg" xmlns:xlink="http://www.w3.org/1999/xlink">
    <title>水坝</title>
    <g id="水坝" stroke="none" stroke-width="1" fill="none" fill-rule="evenodd">
        <path d="M18.3673209,10.2769456 C18.5714561,8.79482067 18.7752997,7.31263678 18.9775979,5.83021703 C19.0231427,5.49642052 19.0616896,5.16165109 19.1076134,4.79412704 L6.78806505,4.79412704 L6.78806505,4.00067485 C5.9238218,4.00067485 5.09074846,3.99666528 4.25790838,4.00819279 C4.19055339,4.00913622 4.07450453,4.10961127 4.06546555,4.17565121 C3.8803997,5.52814327 3.70795926,6.88240427 3.53228228,8.23622303 C3.38826808,9.34707875 3.24359576,10.4578471 3.09826539,11.5685276 C2.94938462,12.7050927 2.79863774,13.8413924 2.64943623,14.9778985 C2.49894644,16.123012 2.34920062,17.2682254 2.20019886,18.4135379 C2.1338644,18.9240797 2.07091227,19.4350932 2,19.9969044 L2.40771637,19.9969044 C5.90603542,19.9969044 9.40435446,19.9969928 12.9026443,19.9968749 C14.1960643,19.9968159 15.489455,19.9963442 16.7828749,19.995961 C16.9115784,19.9959315 17.0409524,20.023114 17.0660283,19.8214563 C17.1643491,19.0313946 17.2740707,18.2427774 17.3811097,17.453836 C17.5245524,16.3959938 17.6689429,15.3382831 17.814281,14.2807054 C17.997889,12.94605 18.1834797,11.611601 18.3673209,10.2769456 L18.3673209,10.2769456 Z M10.7393537,6.1204095 L13.5243513,6.1204095 L13.5243513,8.94432448 L12.6944562,8.94432448 L12.6944562,6.96863945 L10.7393537,6.96863945 L10.7393537,6.1204095 Z M6.77829711,6.11864057 L9.55833788,6.11864057 L9.55833788,8.93760256 L8.74086407,8.93760256 L8.74086407,6.95584422 L6.77829711,6.95584422 L6.77829711,6.11864057 L6.77829711,6.11864057 Z M3.41046014,19.3214396 C3.42929621,19.0540073 3.44259226,18.7871942 3.46766815,18.5215603 C3.77371056,15.2771419 4.40763473,12.1164233 5.88416691,9.184987 C6.17714654,8.60336381 6.57048802,8.0722435 6.93513802,7.52991998 C6.99403719,7.44232861 7.14373438,7.37628867 7.25415574,7.37207273 C7.71138241,7.35461932 8.16962961,7.36476116 8.6784951,7.36476116 C7.26229083,11.2455216 6.58911998,15.2006358 6.91907196,19.3214396 L3.41046014,19.3214396 L3.41046014,19.3214396 Z M7.37236229,19.3239456 C7.46351022,18.4681387 7.53069026,17.6310235 7.64539785,16.8006303 C7.92499395,14.7765061 8.38335778,12.7939812 9.10796334,10.8824198 C9.55565534,9.70133677 10.0956907,8.56657013 10.874501,7.56246823 C10.9869926,7.41741622 11.1047035,7.35485517 11.2893903,7.36042729 C11.7310174,7.37378269 12.1733443,7.36473168 12.6646276,7.36473168 C11.2461198,11.2400084 10.5767687,15.2026701 10.9024636,19.3239456 L7.37236229,19.3239456 Z M14.8521485,19.3187273 L11.3375593,19.3187273 C11.3740651,18.8562118 11.3973332,18.4037498 11.4474558,17.9543539 C11.6201004,16.4061596 11.8733376,14.8721756 12.2713735,13.3650498 C12.7215148,11.6606297 13.2891337,10.0026145 14.1974055,8.48425607 C14.3985083,8.1480715 14.6392368,7.835679 14.8699349,7.51848092 C14.9170542,7.45370871 15.0001254,7.3747556 15.068326,7.37307512 C15.5689689,7.3607516 16.0700783,7.36641216 16.6126213,7.36641216 C15.1870282,11.2395956 14.5301275,15.1964199 14.8521485,19.3187273 L14.8521485,19.3187273 Z M17.4818214,8.94081611 L16.6386886,8.94081611 L16.6386886,6.96203546 L14.6893885,6.96203546 L14.6893885,6.12070432 L17.4818214,6.12070432 L17.4818214,8.94081611 L17.4818214,8.94081611 Z M19.8027986,4.02263903 L17.6381958,20 L22,20 L22,4.02263903 L19.8027986,4.02263903 Z" id="形状" fill="#FFFFFF" fill-rule="nonzero"></path>
    </g>
</svg>