<?xml version="1.0" encoding="UTF-8"?>
<svg width="24px" height="24px" viewBox="0 0 24 24" version="1.1" xmlns="http://www.w3.org/2000/svg" xmlns:xlink="http://www.w3.org/1999/xlink">
    <title>水电站</title>
    <g id="水电站" stroke="none" stroke-width="1" fill="none" fill-rule="evenodd">
        <path d="M5.92838036,19.0789964 L6.67839524,19.568447 C6.92840019,19.7337725 7.27465707,19.7337725 7.52466203,19.568447 L8.27467691,19.0789964 C9.06260137,18.5616148 10.1493053,18.5616148 10.9372297,19.0789964 L11.6872446,19.568447 C11.9372496,19.7337725 12.2822564,19.7337725 12.5322614,19.568447 L13.2835263,19.0789964 C14.0709448,18.5627084 15.1561606,18.5627084 15.9435791,19.0789964 L16.694844,19.568447 C16.944849,19.7337725 17.2898558,19.7337725 17.5411108,19.568447 L18.2911257,19.0789964 C19.0787973,18.5621618 20.1647569,18.5621618 20.9524285,19.0789964 L21.7024434,19.568447 C22.0331304,19.786502 22.0980504,20.196527 21.8474462,20.4842634 C21.5968421,20.7719999 21.1256125,20.8284879 20.7949254,20.6104329 L20.0436605,20.1209823 C19.7930775,19.9569245 19.4479767,19.9569245 19.1973937,20.1209823 L18.4473788,20.6104329 C17.6597072,21.1272675 16.5737476,21.1272675 15.786076,20.6104329 L15.0360611,20.1209823 C14.7854781,19.9569245 14.4403773,19.9569245 14.1897943,20.1209823 L13.4397794,20.6104329 C12.6540339,21.1298557 11.5667221,21.1298557 10.7809767,20.6104329 L10.0309618,20.1209823 C9.78037878,19.9569245 9.43527798,19.9569245 9.18469499,20.1209823 L8.43343007,20.6104329 C7.64601159,21.1267209 6.56079576,21.1267209 5.77337727,20.6104329 L5.02211238,20.1209823 C4.77152939,19.9569245 4.42642856,19.9569245 4.17584557,20.1209823 L3.20457629,20.7605311 C2.87423442,20.9785861 2.4032846,20.9223416 2.15268042,20.6349055 C1.90207624,20.3474693 1.96671641,19.9376878 2.29705828,19.7196328 L3.26707755,19.0789964 C4.05474913,18.5621618 5.14070878,18.5621618 5.92838036,19.0789964 L5.92838036,19.0789964 Z M5.92838036,16.5860613 L6.67839524,17.0755119 C6.92840019,17.2397497 7.27465707,17.2397497 7.52466203,17.0755119 L8.27467691,16.5860613 C9.06260137,16.0686797 10.1493053,16.0686797 10.9372297,16.5860613 L11.6872446,17.0755119 C11.9372496,17.2397497 12.2822564,17.2397497 12.5322614,17.0755119 L13.2835263,16.5860613 C14.0709448,16.0697733 15.1561606,16.0697733 15.9435791,16.5860613 L16.694844,17.0755119 C16.944849,17.2397497 17.2898558,17.2397497 17.5411108,17.0755119 L18.2911257,16.5860613 C19.0787973,16.0692267 20.1647569,16.0692267 20.9524285,16.5860613 L21.7024434,17.0755119 C21.9161371,17.2165687 22.0271123,17.4461077 21.9935656,17.6776636 C21.960019,17.9092196 21.787047,18.1076137 21.5398066,18.1981128 C21.2925662,18.2886119 21.0086191,18.257467 20.7949254,18.1164102 L20.0436605,17.6269596 C19.7930775,17.4629017 19.4479767,17.4629017 19.1973937,17.6269596 L18.4473788,18.1164102 C17.6597072,18.6332447 16.5737476,18.6332447 15.786076,18.1164102 L15.0360611,17.6269596 C14.7854781,17.4629017 14.4403773,17.4629017 14.1897943,17.6269596 L13.4397794,18.1164102 C12.6537474,18.635092 11.5670087,18.635092 10.7809767,18.1164102 L10.0309618,17.6269596 C9.78037878,17.4629017 9.43527798,17.4629017 9.18469499,17.6269596 L8.43343007,18.1164102 C7.64601159,18.6326981 6.56079576,18.6326981 5.77337727,18.1164102 L5.02211238,17.6269596 C4.77152939,17.4629017 4.42642856,17.4629017 4.17584557,17.6269596 L3.20457629,18.2665083 C2.99088257,18.4075652 2.70693545,18.4387101 2.45969507,18.3482109 C2.21245468,18.2577118 2.03948272,18.0593178 2.00593606,17.8277618 C1.9723894,17.5962058 2.08336456,17.3666669 2.29705828,17.2256101 L3.26707755,16.5860613 C4.05474913,16.0692267 5.14070878,16.0692267 5.92838036,16.5860613 L5.92838036,16.5860613 Z M12.6736641,4.81531794 C13.5106807,4.90885738 14.3161967,5.17424838 15.036211,5.59408823 L15.3017163,5.75723844 L15.3804678,5.68110167 C16.0474013,5.03719618 17.1109178,4.9877859 17.8386416,5.56689652 L17.9691442,5.68218934 L16.6416179,6.96454994 C17.1647533,7.60301106 17.5393857,8.34153766 17.7441398,9.12900931 L17.8116411,9.42703033 L17.9241433,9.42703033 C18.8815373,9.42703033 19.6679279,10.1394529 19.7489295,11.0454804 L19.7556797,11.1977539 L17.8791424,11.1977539 C17.7807838,12.0049328 17.5053964,12.7825272 17.0713764,13.4785937 L16.901498,13.7352834 L16.9802496,13.8114201 C17.5900117,14.4009362 17.6867636,15.3145773 17.2333796,16.0063342 L17.1355027,16.1412051 L16.9464989,16.2804265 L15.6527233,15.030696 C15.3804679,15.2384406 15.0902121,15.4222565 14.784206,15.5821437 C14.2253934,15.3580841 13.4737064,15.3004583 12.920044,15.639996 L12.7400405,15.7596395 L12.0987777,16.2305998 L11.457515,15.7596395 C10.8224064,15.2969374 9.95137737,15.3569964 9.23334587,15.6191244 C9.09926328,15.5515097 8.96791402,15.4789451 8.83958804,15.4015908 L8.64833425,15.2819473 L8.56958268,15.3580841 C7.9026492,16.0019895 6.83913276,16.0513998 6.11140891,15.4722892 L5.98090631,15.3569964 L7.30843266,14.0735481 C6.78681988,13.435142 6.41209641,12.6964882 6.20928586,11.9069134 L6.14178452,11.6099801 L6.02928227,11.6099801 C5.08790679,11.6099692 4.29984282,10.9200284 4.20674611,10.0143711 L4.1966209,9.83925652 L6.07315814,9.83925652 C6.17067127,9.03186867 6.44529318,8.25389864 6.87867412,7.557329 L7.0485525,7.29955168 L6.96980093,7.22341494 C6.30445338,6.57877085 6.25336064,5.55132778 6.85167359,4.84794798 L6.96980093,4.72177847 L8.29845232,6.00305142 C8.95842089,5.50155569 9.72119538,5.14154463 10.5361217,4.94692575 L10.8432528,4.88166567 L10.8432528,4.77072353 C10.8432528,3.79182231 11.6633941,3 12.6747892,3 L12.6736641,4.81531794 Z M14.0236909,7.37677613 L12.063902,7.37677613 C12.063902,7.37677613 10.4067441,9.68480768 10.0141113,10.1970993 C9.64960411,10.6724102 9.84985809,10.6876376 9.8802337,10.6876376 L12.0864025,10.6876376 L10.0917379,13.9027843 C11.5812381,12.5811365 13.0491979,11.236976 14.4950753,9.87079889 L14.6908292,9.68372 L14.7065795,9.66740498 L14.7752058,9.6021449 L12.0740272,9.6021449 C12.0740272,9.6021449 12.6961646,8.94736876 13.5556816,8.20992982 C14.4151987,7.47466623 14.0225659,7.37677613 14.0225659,7.37677613 L14.0236909,7.37677613 Z" id="形状" fill="#FFFFFF" fill-rule="nonzero"></path>
    </g>
</svg>