<?xml version="1.0" encoding="UTF-8"?>
<svg width="24px" height="24px" viewBox="0 0 24 24" version="1.1" xmlns="http://www.w3.org/2000/svg" xmlns:xlink="http://www.w3.org/1999/xlink">
    <title>河段</title>
    <g id="河段" stroke="none" stroke-width="1" fill="none" fill-rule="evenodd">
        <path d="M5.52809525,6.60151166 C7.5989697,6.23601754 11.145051,5.81152701 12.8387351,7.36186335 C14.4613199,8.84883984 12.9239156,11.8683327 11.8414998,13.4760889 C9.83871895,16.4460819 13.4349986,17.3786597 16.9772614,15.5907239 C16.9815259,15.5893692 16.9857904,16.1636336 16.9880585,16.9012805 L16.9889563,17.2518329 C16.9890799,17.3116915 16.9891898,17.3721415 16.9892853,17.4329954 L16.9897269,20.0318534 C16.987916,20.2268893 16.8692892,20.4037784 16.6843236,20.4872524 C12.5291766,22.320728 4.28321429,19.9559283 6.25275395,15 C6.60801901,14.1030621 7.39126422,13.1110845 8.2077506,12.1230668 L8.75415242,11.4696683 C10.0152395,9.95101192 10.6157314,9.46263839 10.1067259,8.50630065 C9.52085021,7.40542325 6.46058447,7.49254304 4.52844113,7.84102222 C4.37726949,7.86710467 4.22169121,7.82885097 4.10262889,7.7363232 C3.98356657,7.64379542 3.91293918,7.50625625 3.90932423,7.35988336 L3.90932423,7.34404339 C3.89708342,7.09560482 4.07722861,6.87594999 4.33314922,6.82726461 C4.53398133,6.7895897 4.80254297,6.73556761 5.1217793,6.67562221 Z M3.06375183,2.00002542 C3.16156075,1.99904443 3.25755621,2.02647171 3.3400691,2.07900002 L5.68980471,3.57069778 C5.84699266,3.67203773 5.94057577,3.84747653 5.93719128,4.03446952 C5.93380679,4.22146252 5.83393633,4.39339989 5.67318412,4.48898526 L3.47095623,5.78954626 C3.31098307,5.88511464 3.21125954,6.05963082 3.21125954,6.25076758 L3.21125954,7.52432012 C3.21125954,7.81725798 2.98064889,8.0582565 2.69186617,8.0582565 L2.51942757,8.0582565 C2.23480001,8.0582565 2.00001697,7.81933555 2.00001697,7.52432012 L2.00001697,2.53191104 C1.9977161,2.24206712 2.22961018,2.00460758 2.51942757,2.00002542 Z M19.12755,14.2307005 L18.5853033,14.2307005 C18.2954859,14.2352827 18.0635918,14.4727422 18.0658927,14.7625861 L18.0658927,20.4218963 C18.0658927,20.7169117 18.2985982,20.9537551 18.5853033,20.9537551 L18.7556643,20.9537551 C19.044447,20.9537551 19.2750577,20.7148342 19.2750577,20.4218963 L19.2750577,18.4814427 C19.2750577,18.2903059 19.3747812,18.1157897 19.536832,18.0202214 L21.7369823,16.7196604 C21.8975017,16.6237078 21.9969707,16.4515541 21.999932,16.2645658 C22.0028934,16.0775775 21.9089258,15.9023604 21.7515253,15.8013729 L19.4038673,14.3096751 C19.3213544,14.2571468 19.2253589,14.2297195 19.12755,14.2307005 Z" id="形状结合" fill="#FFFFFF"></path>
    </g>
</svg>