<?xml version="1.0" encoding="UTF-8"?>
<svg width="24px" height="24px" viewBox="0 0 24 24" version="1.1" xmlns="http://www.w3.org/2000/svg" xmlns:xlink="http://www.w3.org/1999/xlink">
    <title>泵站</title>
    <g id="泵站" stroke="none" stroke-width="1" fill="none" fill-rule="evenodd">
        <path d="M19.2408059,2.48161176 C19.6600972,2.48161176 20,2.82151454 20,3.24080588 C20,3.66009721 19.6600972,4 19.2408059,4 L18.0398764,3.99961176 L18.0399262,10.0199631 C18.0399262,10.063849 18.0370416,10.1070612 18.0314517,10.1494203 C18.037076,10.265146 18.0399262,10.3822334 18.0399262,10.5 C18.0399262,12.6736566 17.0689646,14.6159136 15.5454577,15.8998315 L18.3051973,19.3784804 C18.6484531,19.8111395 18.5759774,20.4401428 18.1433183,20.7833986 C17.9665215,20.9236626 17.7474778,21 17.5217987,21 L5.00087636,21 C4.44859161,21 4.00087636,20.5522847 4.00087636,20 C4.00087636,19.7743208 4.07721373,19.5552771 4.21747777,19.3784804 L6.91273159,15.9815853 C5.33249656,14.6991779 4.31940937,12.7203085 4.31940937,10.5 C4.31940937,6.63400675 7.39085168,3.5 11.1796678,3.5 C13.0995699,3.5 14.8352691,4.30473162 16.0804661,5.60165647 L16.0788764,3.99961176 L14.8789726,4 C14.4596813,4 14.1197785,3.66009721 14.1197785,3.24080588 C14.1197785,2.82151454 14.4596813,2.48161176 14.8789726,2.48161176 L19.2408059,2.48161176 Z M11.1796678,5.5 C8.5109314,5.5 6.32752422,7.72788259 6.32752422,10.5 C6.32752422,13.2721174 8.5109314,15.5 11.1796678,15.5 C13.8484041,15.5 16.0318113,13.2721174 16.0318113,10.5 C16.0318113,7.72788259 13.8484041,5.5 11.1796678,5.5 Z M11.1348295,8.2124183 C12.3730047,8.2124183 13.376744,9.23660351 13.376744,10.5 C13.376744,11.7633965 12.3730047,12.7875817 11.1348295,12.7875817 C9.89665429,12.7875817 8.89291497,11.7633965 8.89291497,10.5 C8.89291497,9.23660351 9.89665429,8.2124183 11.1348295,8.2124183 Z" id="形状结合" fill="#FFFFFF" fill-rule="nonzero"></path>
    </g>
</svg>