<?xml version="1.0" encoding="UTF-8"?>
<svg width="24px" height="24px" viewBox="0 0 24 24" version="1.1" xmlns="http://www.w3.org/2000/svg" xmlns:xlink="http://www.w3.org/1999/xlink">
    <title>流域</title>
    <g id="流域" stroke="none" stroke-width="1" fill="none" fill-rule="evenodd">
        <path d="M7.96160914,3 C7.40234046,3.3525641 5.72218787,4.70592948 5.42417199,5.15064102 C4.95642001,5.84695512 4.80311001,6.66666665 4.94703368,7.64022437 C5.07531348,8.50080129 5.4359049,8.94230769 6.32525942,9.53926283 C6.40347882,9.59214744 6.68193986,9.77564104 6.6889796,9.77964744 C7.93814332,10.6089744 8.48489689,11.2956731 8.48489689,12.5841346 C8.48489689,14.0584936 7.87478561,14.7748397 6.30648676,15.8317308 L6.29240727,15.8413462 C5.37724036,16.4583333 5.06983814,16.7491987 4.91652812,17.2195513 C4.71472208,17.8413462 4.70298917,18.4094551 4.88758694,18.9487179 C5.00491603,19.2924679 6.04758056,20.6746795 6.32525942,21 L4.08505595,21 C3.00328172,19.7339744 2.74281114,18.2772436 3.24810843,16.7267628 C3.55316407,15.786859 4.06159013,15.3044872 5.28337708,14.4815705 L5.29745657,14.4719551 C6.43945973,13.7027244 6.73669344,13.3525641 6.73669342,12.5841346 C6.73669342,11.9719551 6.51767911,11.6963141 5.69090012,11.1482372 L5.31935799,10.9022436 C4.07332304,10.0649038 3.42488427,9.27003206 3.21682067,7.87339744 C2.88517045,5.63862179 3.69630556,4.25560898 5.69090012,3 L7.96160914,3 Z M20.1137743,3 C19.7703911,3.21129516 18.5877139,4.79444373 18.3428872,5.03860702 C17.5653864,5.81413853 17.2822322,6.7665319 17.4621368,7.95213252 C17.5904166,8.79261772 17.951008,9.22381636 18.8403625,9.80683449 C18.9185819,9.85848442 19.197043,10.037694 19.2040827,10.0416069 C20.4532464,10.8515717 21,11.5222382 21,12.7806182 C21,14.2205556 20.3898887,14.9201774 18.8215899,15.9523934 L18.8075104,15.9617843 C17.8923435,16.5643668 17.5849412,16.8484414 17.4316312,17.3078127 C17.1688141,18.0982131 17.2282608,18.8009652 17.6232687,19.4653711 C17.724954,19.6375375 18.6948744,20.832529 18.8403625,21 L16.6392688,21 C15.5574945,19.763532 15.2579143,18.3408113 15.7632115,16.8265293 C16.0682672,15.9085692 16.5766932,15.4374593 17.7984802,14.6337551 L17.8125597,14.6243642 C18.9545628,13.8730925 19.2517965,13.5311074 19.2517965,12.7806182 C19.2517965,12.1827312 19.0327822,11.9135255 18.2060032,11.3782444 L17.8344611,11.137994 C16.587644,10.3209861 15.9399874,9.54467198 15.7319238,8.18064431 C15.4002735,5.99726098 16.3068363,4.30768227 17.7984802,3 L20.1137743,3 Z M12.4784615,19.4545455 L14.4615385,21 L10.6153846,21 L12.4784615,19.4545455 Z M8.75769231,16.3636364 L10.6153846,18.1795455 L8.64615386,20.2272727 L6.76923077,18.4036364 L8.75769231,16.3636364 Z M14.4838462,11.7272727 L16,13.3322273 L12.1507692,17.1363636 L10.6153846,15.5229091 L14.4838462,11.7272727 Z M12.6515385,7.58545454 L14.4615385,9.33181819 L10.6153846,12.9605454 L9.07692308,11.0318182 L12.6515385,7.58545454 Z M13.6923077,4 L7.8223077,9.4090909 L6,7.43786364 L9.81384616,4 L13.6923077,4 Z" id="形状结合" fill="#FFFFFF" fill-rule="nonzero"></path>
    </g>
</svg>