<?xml version="1.0" encoding="UTF-8"?>
<svg width="24px" height="24px" viewBox="0 0 24 24" version="1.1" xmlns="http://www.w3.org/2000/svg" xmlns:xlink="http://www.w3.org/1999/xlink">
    <title>渡槽</title>
    <g id="渡槽" stroke="none" stroke-width="1" fill="none" fill-rule="evenodd">
        <path d="M20.3787466,4 C20.7220708,4 21,4.27792916 21,4.62125341 C21,4.96457766 20.7220708,5.24250681 20.3787466,5.24250681 L19.3814714,5.24250681 L19.3814714,10.4168937 L20.1662125,10.4168937 C20.6239782,10.4168937 20.9836512,10.7765668 21,11.2343324 L21,20.1683195 C21,20.6260852 20.6239782,21.002107 20.1662125,21.002107 L18.2697548,21.002107 C18.2697548,18.1883728 16.6510285,13.7847411 12.0081744,13.7847411 C7.36532024,13.7847411 5.74659401,18.3596939 5.74659401,21.002107 L3.83378747,21.002107 C3.3760218,21.002107 3,20.6260852 3,20.1683195 L3,11.2506812 C3,10.7929155 3.3760218,10.4168937 3.83378747,10.4168937 L4.61852861,10.4168937 L4.61852861,5.24250681 L3.65395095,5.24250681 C3.3106267,5.24250681 3.03269755,4.96457766 3.03269755,4.62125341 C3.03269755,4.27792916 3.3106267,4 3.65395095,4 Z M14.7547684,5.24250681 L12.6294278,5.24250681 L12.6294278,10.4168938 L14.7547684,10.4168938 L14.7547684,5.24250681 Z M11.386921,5.24250681 L9.22888283,5.24250681 L9.22888283,10.4168938 L11.386921,10.4168938 L11.386921,5.24250681 Z M7.98637602,5.24250681 L5.86103542,5.24250681 L5.86103542,10.4168938 L7.98637602,10.4168938 L7.98637602,5.24250681 Z M18.1389646,5.24250681 L15.9972752,5.24250681 L15.9972752,10.4168938 L18.1389646,10.4168938 L18.1389646,5.24250681 Z" id="形状结合" fill="#FFFFFF" fill-rule="nonzero"></path>
    </g>
</svg>