<?xml version="1.0" encoding="UTF-8"?>
<svg width="24px" height="24px" viewBox="0 0 24 24" version="1.1" xmlns="http://www.w3.org/2000/svg" xmlns:xlink="http://www.w3.org/1999/xlink">
    <title>湖泊</title>
    <g id="湖泊" stroke="none" stroke-width="1" fill="none" fill-rule="evenodd">
        <path d="M4.40314011,11.926589 C4.40314011,11.5394614 4.08853268,11.2244803 3.70186434,11.2244803 C3.31519599,11.2244803 3.00058857,11.5394614 3.00058857,11.926589 C2.99004307,12.183501 3.12186182,12.4263356 3.34331733,12.5583109 C3.56477283,12.6902862 3.84071343,12.6902862 4.06216893,12.5583109 C4.28362444,12.4263356 4.41368561,12.183501 4.40314011,11.926589 M4.06392652,14.0649323 C3.74228876,14.2584961 3.51028775,14.5435628 3.63331859,14.8972567 C5.01477913,19.0500801 9.19958516,21.585766 13.51621,20.8836573 C17.8310772,20.1815486 21,16.4510461 21,12.0747444 C21,12.0043576 20.9859393,11.9322111 20.9613332,11.8671033 C20.9543028,11.7984761 20.936727,11.7298489 20.9068481,11.6665008 C20.7504232,11.333923 20.3549669,11.1896299 20.0210261,11.3427213 C20.0052078,11.34976 18.1175633,12.1979214 15.6130069,11.472937 C15.1929445,11.34976 14.7781548,11.2089863 14.3703955,11.0488563 C13.5232403,10.7321155 12.7358429,10.4382504 11.7111718,10.4382504 C10.8481984,10.4382504 9.82176968,10.6476513 8.44382431,11.2177847 M14.8256096,3.60884615 C15.0874895,3.71090707 15.3651877,3.81120831 15.6587041,3.91150956 C15.8854324,3.98717541 16.0559179,4.17897955 16.1033727,4.41301578 C16.1508274,4.64705202 16.0699786,4.88988662 15.8907051,5.05001667 C15.7114316,5.20838706 15.4618548,5.25941752 15.2351265,5.18375167 C14.9205191,5.08169075 14.634033,4.97611049 14.3580924,4.86701089 C12.9010558,4.32679191 11.9449304,3.97133837 9.40873758,5.02186194 C9.06600882,5.16087595 8.67582531,4.99898622 8.52994589,4.65936972 C8.39285439,4.31623388 8.55279448,3.92558693 8.89200807,3.77953424 C10.2699534,3.19884282 11.3016549,3 12.1663859,3 C13.191057,3 13.9766968,3.29210538 14.8256096,3.60884615 Z M11.8342027,7.14204369 C12.8377828,7.14204369 13.600574,7.42711038 14.4319109,7.7350528 C14.8097913,7.87406681 15.20349,8.02187917 15.6428858,8.15209482 C18.1175633,8.87707926 19.9278741,8.03771621 19.9419348,8.02891785 C20.2688453,7.87406681 20.6572712,8.01132114 20.8154537,8.33686027 C20.9701211,8.66415907 20.831272,9.05304636 20.5061191,9.20965707 C20.4129671,9.25540852 18.2177455,10.2672193 15.2720358,9.41201923 C14.8326399,9.28180358 14.3985168,9.13223155 13.971424,8.96330314 C12.5548118,8.43012283 11.6127471,8.08346765 9.13982733,9.11815418 C6.38042141,10.2672193 4.20453319,9.35746943 4.12368435,9.31875667 C3.96374426,9.25188917 3.83719826,9.12343319 3.77392526,8.96330314 C3.70889467,8.80141341 3.71240984,8.62192697 3.78271317,8.46355658 C3.84950134,8.30342652 3.97956251,8.17848989 4.1395026,8.11338206 C4.29768511,8.04827423 4.47695861,8.05179358 4.63514111,8.12218041 C4.70368687,8.15209482 6.4138155,8.84012617 8.6354009,7.91453924 C9.98522493,7.34264618 10.9870475,7.14204369 11.8342027,7.14204369" id="形状" fill="#FFFFFF" fill-rule="nonzero"></path>
    </g>
</svg>