<?xml version="1.0" encoding="UTF-8"?>
<svg width="24px" height="24px" viewBox="0 0 24 24" version="1.1" xmlns="http://www.w3.org/2000/svg" xmlns:xlink="http://www.w3.org/1999/xlink">
    <title>灌区</title>
    <g id="灌区" stroke="none" stroke-width="1" fill="none" fill-rule="evenodd">
        <path d="M10.8863684,14.5078316 C11.2387839,14.8341331 11.2900237,15.2216376 11.2854761,15.4136641 L11.284,15.437 L11.2911984,15.4056466 C11.4259491,15.0299645 12.0832491,14.7675775 12.2912024,14.6928919 L12.3544105,14.6711579 C12.0267158,15.0060526 11.7808737,15.9818421 11.9586,15.6562316 C12.4369263,14.7793474 13.3365474,14.7153053 13.3365474,14.7153053 C12.5008737,15.0418632 12.7523053,16.5970632 12.7523053,16.5970632 L10.0920947,16.5970632 C10.2445263,15.2913053 9.35371579,15.1762 9.35371579,15.1762 C9.90565263,15.0224421 10.7488105,15.4478105 10.7487158,15.4478105 C11.0270526,15.133 10.8863684,14.5078316 10.8863684,14.5078316 Z M3.48126316,13.0058211 C3.74705746,13.0058211 3.96252632,13.2212899 3.96252632,13.4870842 L3.96252632,14.6903368 C3.96252632,14.9561311 3.74705746,15.1716 3.48126316,15.1716 C3.21546886,15.1716 3,14.9561311 3,14.6903368 L3,13.4870842 C3,13.2212899 3.21546886,13.0058211 3.48126316,13.0058211 Z M5.07672632,12.8902421 C5.34252062,12.8902421 5.55798947,13.105711 5.55798947,13.3715053 L5.55798947,14.5747579 C5.55798947,14.8405522 5.34252062,15.0560211 5.07672632,15.0560211 C4.81093201,15.0560211 4.59546316,14.8405522 4.59546316,14.5747579 L4.59546316,13.3715053 C4.59546316,13.105711 4.81093201,12.8902421 5.07672632,12.8902421 Z M6.67455789,12.7506947 C6.9403522,12.7506947 7.15582105,12.9661636 7.15582105,13.2319579 L7.15582105,14.4352105 C7.15582105,14.7010048 6.9403522,14.9164737 6.67455789,14.9164737 C6.40876359,14.9164737 6.19329474,14.7010048 6.19329474,14.4352105 L6.19329474,13.2319579 C6.19329474,12.9661636 6.40876359,12.7506947 6.67455789,12.7506947 Z M3.48126316,10.3587789 C3.60890979,10.3587538 3.73133556,10.4094501 3.82159536,10.4997099 C3.91185516,10.5899697 3.96255145,10.7123955 3.96252633,10.8400421 L3.96252633,12.0432947 C3.96252633,12.309089 3.74705746,12.5245579 3.48126316,12.5245579 C3.21546886,12.5245579 3,12.309089 3,12.0432947 L3,10.8400421 C3,10.5742478 3.21546886,10.3587789 3.48126316,10.3587789 Z M5.07672632,10.2432 C5.34252062,10.2432 5.55798947,10.4586689 5.55798947,10.7244632 L5.55798947,11.9277158 C5.55798947,12.1935101 5.34252062,12.4089789 5.07672632,12.4089789 C4.81093201,12.4089789 4.59546316,12.1935101 4.59546316,11.9277158 L4.59546316,10.7244632 C4.59546316,10.4586689 4.81093201,10.2432 5.07672632,10.2432 Z M6.67455789,10.1037474 C6.9403522,10.1037474 7.15582105,10.3192162 7.15582105,10.5850105 L7.15582105,11.7881684 C7.15582105,12.0539627 6.9403522,12.2694316 6.67455789,12.2694316 C6.40880058,12.2694316 6.19334705,12.0540205 6.19329474,11.7882632 L6.19329474,10.5850105 C6.19329474,10.3192162 6.40876359,10.1037474 6.67455789,10.1037474 Z M12.7157368,3 C13.1127789,3 13.4376316,3.38804211 13.4376316,3.86229474 L13.4376316,9.54461053 C13.4376316,10.0188632 13.1127789,10.4069053 12.7157368,10.4069053 C12.3186947,10.4069053 11.9938421,10.0188632 11.9938421,9.54461053 L11.9938421,3.86229474 C11.9938421,3.38804211 12.3186947,3 12.7157368,3 Z M4.06597895,7.81282105 C4.31242856,7.91190542 4.43196927,8.1919504 4.33304211,8.43846316 C4.19275452,8.77461418 4.0918206,9.12586422 4.03225263,9.48521053 C3.99310632,9.71964678 3.78864878,9.89037687 3.55098947,9.88708421 L3.47169474,9.88708421 C3.34500533,9.86616249 3.23250561,9.79616123 3.15818747,9.69238589 C3.08386933,9.58861055 3.05382084,9.45956229 3.07465263,9.33363158 C3.14606435,8.90083091 3.26718124,8.47771652 3.4356,8.07268421 C3.538875,7.82580843 3.82079935,7.7102309 4.06597895,7.81282105 Z M5.98146316,7.81272632 C6.08680882,7.88484773 6.15918106,7.99587183 6.18265201,8.12136414 C6.20612297,8.24685645 6.1787691,8.37653242 6.10661053,8.48185263 C5.9102643,8.77004272 5.76306765,9.08879806 5.67101053,9.42514737 C5.6254366,9.59107843 5.49480139,9.72009166 5.32831391,9.76358902 C5.16182643,9.80708637 4.98478009,9.75845957 4.86386653,9.63602586 C4.74295298,9.51359215 4.69654186,9.33595212 4.74211579,9.17002105 C4.8629917,8.73143765 5.05570714,8.315915 5.31243158,7.94033684 C5.38416894,7.8346214 5.49499662,7.76176798 5.62049176,7.73783114 C5.74598691,7.7138943 5.87584991,7.74083858 5.98146316,7.81272632 Z M8.13848895,7.99774712 C8.28313728,8.09560758 8.3634198,8.2641494 8.34826014,8.43813214 C8.33310048,8.61211488 8.22487797,8.76423168 8.06548421,8.8356 C7.78617791,8.96940937 7.55200992,9.18184636 7.39171579,9.44684211 C7.3253939,9.55605792 7.21836227,9.63441625 7.09421349,9.66464486 C6.97006472,9.69487347 6.83899091,9.67449071 6.72988421,9.60798947 C6.50392813,9.4699919 6.43195068,9.17535008 6.56883158,8.94871579 C6.8262475,8.52278848 7.20265789,8.18148339 7.65167368,7.96686316 C7.80752926,7.88806691 7.99384062,7.89988666 8.13848895,7.99774712 Z M10.4670632,7.71656838 C10.7328575,7.71656838 10.9483263,7.93203728 10.9483263,8.19783158 C10.9483263,8.46362588 10.7328575,8.67909474 10.4670632,8.67909474 L9.26324211,8.67909474 C8.99746948,8.67888553 8.78215846,8.46332005 8.78226312,8.19754737 C8.78247237,7.93177474 8.99803784,7.71646372 9.26381053,7.71656838 L10.4670632,7.71656838 Z M8.19602691,6.36810596 C8.32116214,6.49232245 8.36835225,6.67502384 8.3190242,6.84430261 C8.26969614,7.01358139 8.13174814,7.14233329 7.95947368,7.17988421 C7.61732077,7.26542881 7.29195689,7.40780753 6.99694737,7.60108421 C6.77731385,7.71215436 6.5092709,7.63961474 6.37562808,7.43293853 C6.24198525,7.22626231 6.28581341,6.95205781 6.47722105,6.79733684 C6.85784256,6.54685473 7.27747279,6.36141959 7.71893684,6.24862105 C7.88784753,6.19804694 8.07089169,6.24388947 8.19602691,6.36810596 Z M5.83465767,5.86148093 C5.99783172,6.0651209 5.96898718,6.36170264 5.76963158,6.53008421 C5.48460355,6.75766709 5.22628195,7.01681501 4.99961053,7.30256842 C4.92050999,7.40279968 4.80482087,7.46748914 4.67801011,7.48239656 C4.55119935,7.49730398 4.42366218,7.46120732 4.32347368,7.38205263 C4.11634573,7.21734514 4.08081767,6.91641405 4.24389474,6.708 C4.51568074,6.36434485 4.82569687,6.05273955 5.16795789,5.7792 C5.37574625,5.62134244 5.67148363,5.65784095 5.83465767,5.86148093 Z M10.4670632,6.12839996 C10.7328575,6.12839996 10.9483263,6.34386886 10.9483263,6.60966316 C10.9483263,6.87545746 10.7328575,7.09092632 10.4670632,7.09092632 L9.26324211,7.09092632 C8.99746948,7.09071711 8.78215846,6.87515163 8.78226312,6.60937895 C8.78247237,6.34360632 8.99803784,6.1282953 9.26381053,6.12839996 L10.4670632,6.12839996 Z M8.2324321,4.7532366 C8.347477,4.88788733 8.379289,5.07483654 8.31525485,5.23996006 C8.2512207,5.40508357 8.10168467,5.52170684 7.92593684,5.54358947 C7.56721196,5.60494434 7.21676695,5.70749656 6.88155789,5.84921053 C6.8221796,5.8744889 6.75832448,5.88756921 6.69378947,5.88767368 C6.4653081,5.88720914 6.26864677,5.72615972 6.22314487,5.50225454 C6.17764297,5.27834936 6.29584427,5.05331371 6.50602105,4.96370526 C6.90992564,4.792785 7.33226519,4.66921452 7.7646,4.59546316 C7.93769412,4.5579855 8.1173872,4.61858586 8.2324321,4.7532366 Z M10.4670632,4.52327368 C10.7328575,4.52327368 10.9483263,4.73874254 10.9483263,5.00453684 C10.9483263,5.27033114 10.7328575,5.4858 10.4670632,5.4858 L9.28550526,5.4858 C9.01971096,5.4858 8.80424211,5.27033114 8.80424211,5.00453684 C8.80424211,4.73874254 9.01971096,4.52327368 9.28550526,4.52327368 L10.4670632,4.52327368 Z M20.7014842,8.82593684 L19.2913263,6.23422105 C18.5149524,4.80554115 17.019002,3.91627428 15.393,3.91686287 L13.8240632,3.91686287 L13.8240632,9.70187368 L15.3930947,9.70187368 C15.5171968,9.7013773 15.631643,9.76875849 15.6914211,9.87751579 L17.1015789,12.4691368 C17.8770903,13.8992833 19.3730261,14.7903955 20.9999053,14.7913263 L20.9999053,14.1959053 L21,14.1959053 L21,9.00157895 C20.875858,9.00204174 20.7613713,8.93467954 20.7014842,8.82593684 Z M6.32336842,21 L10.8144632,21 C10.8144632,21 10.3900421,18.3743684 11.8007684,17.823 C11.8007684,17.823 10.2819474,17.9310947 9.47450526,19.4116421 C9.17447368,19.9613053 9.58942105,18.3139263 10.1427789,17.7486316 C10.1427789,17.7486316 8.37536842,18.3102316 8.30867368,19.1676947 C8.28887368,19.4223474 8.58369474,18.3241579 7.66427368,17.4728526 C7.66427368,17.4728526 7.90177895,18.5282211 7.43188421,19.0597895 C7.43197895,19.0598842 6.00855789,18.3417789 5.07672632,18.6012632 C5.07672632,18.6012632 6.58067368,18.7955684 6.32336842,21 Z M12.8030842,17.8354632 C12.8030842,17.8354632 14.0024526,18.0043789 13.7973474,19.921 L17.3790632,19.921 C17.3790632,19.921 17.0405684,17.6382211 18.1656632,17.1589474 C18.1656632,17.1589474 16.9543579,17.2529263 16.3104316,18.5401158 C16.0712211,19.0179684 16.4021368,17.5857368 16.8434211,17.0943368 C16.8434211,17.0943368 15.4339263,17.5826105 15.3806842,18.3280947 C15.3648632,18.5494947 15.6,17.5947368 14.8667368,16.8545579 C14.8667368,16.8545579 15.0561158,17.7721789 14.6814316,18.2342105 C14.6813368,18.2341158 13.5462,17.6098947 12.8030842,17.8354632 L12.8030842,17.8354632 Z" id="形状结合" fill="#FFFFFF" fill-rule="nonzero"></path>
    </g>
</svg>