<?xml version="1.0" encoding="UTF-8"?>
<svg width="24px" height="24px" viewBox="0 0 24 24" version="1.1" xmlns="http://www.w3.org/2000/svg" xmlns:xlink="http://www.w3.org/1999/xlink">
    <title>视频点</title>
    <defs>
        <path d="M4.45107868,10.0719919 L15.9725798,17.8012306 L20.01442,15.3617256 C20.3005682,15.1889575 20.665646,15.2633199 20.8643768,15.523107 L20.9071733,15.5863214 C21.0920677,15.8964202 20.9921416,16.2986347 20.683982,16.4846927 L16.5281033,18.9938937 C16.1669002,19.2120013 15.7130997,19.2011491 15.3625529,18.9660171 L8.732,14.518 L7.26815589,16.7286238 C7.14747318,16.9107871 6.94430405,17.0202041 6.7267402,17.0202041 L4.301,17.02 L4.30140134,20.3452045 C4.30140134,20.7068381 4.01007273,21 3.65070067,21 C3.29132861,21 3,20.7068381 3,20.3452045 L3,13.2700119 C3,12.9083783 3.29132861,12.6152164 3.65070067,12.6152164 C4.01007273,12.6152164 4.30140134,12.9083783 4.30140134,13.2700119 L4.301,15.71 L6.37843788,15.7099924 L7.649,13.791 L3.7291911,11.1616374 C3.43017547,10.9610392 3.34937545,10.5544968 3.5487192,10.2535995 C3.74806296,9.95270215 4.15206305,9.87139366 4.45107868,10.0719919 Z M6.92188934,3.27711309 C7.28993652,2.94787814 7.83162219,2.90784034 8.24354954,3.1793896 L20.1365892,11.0204275 C20.7987108,11.4570141 20.7922825,12.4358491 20.1244278,12.8634822 L16.1062722,15.4366054 C15.7421037,15.6697974 15.2755457,15.6647922 14.9163071,15.4238659 L3.76350307,7.94186526 C3.1691911,7.54320054 3.11009762,6.68669187 3.6439348,6.20917161 Z" id="path-1"></path>
    </defs>
    <g id="视频点" stroke="none" stroke-width="1" fill="none" fill-rule="evenodd">
        <mask id="mask-2" fill="white">
            <use xlink:href="#path-1"></use>
        </mask>
        <use id="形状结合" fill="#FFFFFF" fill-rule="nonzero" xlink:href="#path-1"></use>
    </g>
</svg>