<?xml version="1.0" encoding="UTF-8"?>
<svg width="24px" height="24px" viewBox="0 0 24 24" version="1.1" xmlns="http://www.w3.org/2000/svg" xmlns:xlink="http://www.w3.org/1999/xlink">
    <title>重点工程</title>
    <g id="重点工程" stroke="none" stroke-width="1" fill="none" fill-rule="evenodd">
        <path d="M17.5836519,14.2632084 C18.8041425,14.2631215 19.93196,14.9051151 20.5422308,15.9473361 C21.1525016,16.9895571 21.1525016,18.2736514 20.5422308,19.3158724 C19.93196,20.3580933 18.8041425,21.0000869 17.5836519,21 C15.6971241,20.9998656 14.1678634,19.4918228 14.1678634,17.6316042 C14.1678634,15.7713856 15.6971241,14.2633428 17.5836519,14.2632084 Z M3.66900169,15.3422179 L10.5318165,18.0998112 C11.0198962,18.2962803 11.5619847,18.3196932 12.0656163,18.1660564 L12.2512209,18.0998112 L12.8934355,17.8415676 L12.8934355,17.8561639 C12.9219025,18.3951072 13.0448797,18.9115946 13.2487032,19.38317 L12.2512209,19.7840091 C11.7001039,20.005546 11.0829335,20.005546 10.5318165,19.7840091 L3.6428121,17.0163106 C3.29596093,16.8770888 3.07085693,16.5427387 3.07531661,16.1735011 C3.07991035,15.8042635 3.31314537,15.4753768 3.66330829,15.3444635 Z M17.5371171,15.5919667 C17.5093247,15.6039827 17.4875462,15.6264408 17.4766161,15.6543559 L17.0063419,16.8478908 L15.7093872,16.9208727 C15.6622042,16.9233868 15.6214984,16.9543737 15.607088,16.998747 C15.5926776,17.0431203 15.6075572,17.0916588 15.6444825,17.1207309 L16.6499356,17.9313914 L16.3197188,19.1698383 C16.3078609,19.214417 16.3248336,19.2616137 16.3625237,19.2888676 C16.4002138,19.3161216 16.4509662,19.3178973 16.4905206,19.2933461 L17.5836519,18.6005794 L18.6767831,19.2922233 C18.7163375,19.3167746 18.7670899,19.3149988 18.80478,19.2877448 C18.8424701,19.2604909 18.8594428,19.2132942 18.8475849,19.1687155 L18.5173682,17.9313914 L19.5228212,17.1207309 C19.5597465,17.0916588 19.5746261,17.0431203 19.5602157,16.998747 C19.5458053,16.9543737 19.5050996,16.9233868 19.4579165,16.9208727 L18.1609618,16.8478908 L17.689549,15.6543559 C17.6779784,15.6249884 17.6544271,15.6017655 17.6246443,15.5903564 C17.5964166,15.579371 17.5649096,15.5799507 17.5371171,15.5919667 Z M18.0618968,10.6702529 L18.085809,10.6803581 C18.4250507,10.8164657 18.6486372,11.1396737 18.653434,11.5007845 C18.6580784,11.8618952 18.443015,12.1906786 18.1074439,12.3353632 L11.776392,15.0581498 C11.1955511,15.3081143 10.5353474,15.3081143 9.95450652,15.0581498 L3.62345455,12.3353632 C3.28779313,12.190899 3.07251141,11.8622643 3.07691514,11.501157 C3.08145559,11.1400498 3.30481177,10.8166969 3.64395076,10.6803581 L3.66672434,10.6713757 L9.95450652,13.3739519 C10.4684182,13.5950508 11.0469858,13.6214369 11.5794006,13.4480567 L11.7752533,13.3739519 L18.0618968,10.6702529 Z M12.0041277,3.17781793 L18.6722284,5.96235844 C19.0051481,6.10137475 19.2231847,6.42137237 19.2279503,6.77784094 C19.2325617,7.1343095 19.0230147,7.45977524 18.6938633,7.60725838 L12.0553682,10.5770607 C11.4573079,10.8446831 10.771193,10.8446831 10.1731328,10.5770607 L3.53463764,7.60725838 C3.20539306,7.45999304 2.9956284,7.13467302 3.00000094,6.77820778 C3.00451184,6.42174255 3.22231923,6.1016027 3.55513386,5.96235844 L10.2277893,3.17781793 C10.7954924,2.94072736 11.4364246,2.94072736 12.0041277,3.17781793 Z" id="形状结合" fill="#FFFFFF" fill-rule="nonzero"></path>
    </g>
</svg>