<?xml version="1.0" encoding="UTF-8"?>
<svg width="24px" height="24px" viewBox="0 0 24 24" version="1.1" xmlns="http://www.w3.org/2000/svg" xmlns:xlink="http://www.w3.org/1999/xlink">
    <title>隧道</title>
    <g id="隧道" stroke="none" stroke-width="1" fill="none" fill-rule="evenodd">
        <path d="M12,3 C17.59575,3 21,6.01655172 21,11.1156414 L21,21 L19,21 L19,10.9448276 C19,6.90376552 16.426875,4.9862069 12,4.9862069 C7.58775,4.9862069 5,6.91717241 5,10.9448276 L5,21 L3,21 L3,11.1156414 C3,6.01655172 6.40425,3 12,3 Z M12,6.47586207 C15.951,6.47586207 16.832375,9.72144828 17,10.2085655 L17,10.2621931 L17,10.2700138 L17,21 L7,21 L7,10.2700138 C7,10.2700138 7.271625,6.47586207 12,6.47586207 Z M12.702,13.1793103 L11.298,13.1793103 L8.625,18.7655172 L15.375,18.7655172 L12.702,13.1793103 L12.702,13.1793103 Z" id="形状" fill="#FFFFFF" fill-rule="nonzero"></path>
    </g>
</svg>