<?xml version="1.0" encoding="UTF-8"?>
<svg width="24px" height="24px" viewBox="0 0 24 24" version="1.1" xmlns="http://www.w3.org/2000/svg" xmlns:xlink="http://www.w3.org/1999/xlink">
    <title>GNSS</title>
    <g id="GNSS" stroke="none" stroke-width="1" fill="none" fill-rule="evenodd">
        <path d="M5.72891565,7.20989505 L16.8524096,18.2833583 C15.3975904,19.9475262 13.2740964,21 10.8885542,21 C6.53313253,21 3,17.4827586 3,13.1469265 C3,10.772114 4.05722892,8.64917541 5.72891565,7.20989505 Z M10.0662651,13.7856072 L7.50903613,13.7856072 L7.50903613,16.3313343 L10.0662651,16.3313343 L10.0662651,13.7856072 Z M13.8524096,10.1244378 C14.3855422,10.6551724 14.3855422,11.5187406 13.8524096,12.0584708 C13.3192771,12.5892054 12.4518072,12.5892054 11.9096386,12.0584708 C11.376506,11.5277361 11.376506,10.6641679 11.9096386,10.1244378 C12.4427711,9.58470763 13.310241,9.58470763 13.8524096,10.1244378 Z M12.2078313,3 C17.060241,3 21,6.92203898 21,11.7616192 L18.8042169,11.7616192 C18.8042169,8.13643178 15.8493976,5.19490256 12.2078313,5.19490254 L12.2078313,3 Z M12.2078313,6.28335833 C15.2349398,6.28335833 17.7018072,8.73913044 17.7018072,11.7616192 L15.5060241,11.7616192 C15.5060241,9.94452774 14.0331325,8.47826087 12.2078313,8.47826087 L12.2078313,6.28335833 Z" id="形状结合" fill="#FFFFFF" fill-rule="nonzero"></path>
    </g>
</svg>