<?xml version="1.0" encoding="UTF-8"?>
<svg width="24px" height="24px" viewBox="0 0 24 24" version="1.1" xmlns="http://www.w3.org/2000/svg" xmlns:xlink="http://www.w3.org/1999/xlink">
    <title>土壤墒情</title>
    <g id="土壤墒情" stroke="none" stroke-width="1" fill="none" fill-rule="evenodd">
        <path d="M9.53654879,9.55449714 C9.77876044,9.55449714 9.97662346,9.7091487 9.97662346,9.89564028 L9.97662346,16.1169543 C9.97662344,16.7173662 11.1501559,17.1551666 11.9359223,17.1551666 C12.6762029,17.1551666 13.8087982,16.7662634 13.8690668,16.2067886 L13.8690668,9.89564028 C13.8712679,9.80038613 13.9190664,9.71198007 13.9975641,9.65797723 C14.0874729,9.59103152 14.1970656,9.55583388 14.3091415,9.55790856 L16.5606863,9.55790856 C16.7393185,9.54654056 16.9071958,9.6439453 16.9859781,9.80466878 L20.8579529,20.5745581 C20.8939564,20.6782033 20.8643903,20.793332 20.7829014,20.8668041 C20.6880134,20.9544615 20.5629586,21.0021208 20.4337983,20.9999275 L3.43804634,20.9999275 C3.30888595,21.0021208 3.18383122,20.9544615 3.08894317,20.8668041 C3.00839574,20.7927465 2.97937554,20.6780051 3.01502882,20.5745581 L6.89041506,9.80125735 C6.96792739,9.64045534 7.1353061,9.54281777 7.31343257,9.55449714 Z M12.0962596,3.47790152 C12.7097672,3.4785269 13.2071332,3.9753844 13.2083863,4.58889106 L13.2083863,15.1867706 C13.2071332,15.8002773 12.7097672,16.2971348 12.0962596,16.2977601 L11.7801336,16.2977601 C11.1668108,16.2971333 10.6697708,15.8000934 10.669144,15.1867706 L10.669144,4.58889106 C10.6697708,3.97556829 11.1668108,3.47852831 11.7801336,3.47790152 Z M12.5511171,14.8524503 L12.1383339,14.8524503 C12.0127285,14.8524503 11.9109051,14.9542736 11.9109051,15.0798791 C11.9109051,15.2054845 12.0127285,15.3073079 12.1383339,15.3073079 L12.5511171,15.3073079 C12.6767226,15.3073079 12.7785459,15.2054845 12.7785459,15.0798791 C12.7785459,14.9542736 12.6767226,14.8524503 12.5511171,14.8524503 Z M12.6978087,12.8795057 L12.139471,12.8795057 C12.0138656,12.8795057 11.9120423,12.9813291 11.9120423,13.1069345 C11.9120423,13.23254 12.0138656,13.3343633 12.139471,13.3343633 L12.6978087,13.3343633 C12.8234141,13.3343633 12.9252375,13.23254 12.9252375,13.1069345 C12.9252375,12.9813291 12.8234141,12.8795057 12.6978087,12.8795057 Z M12.6978087,10.905424 L12.139471,10.905424 C12.0138656,10.905424 11.9120423,11.0072473 11.9120423,11.1328528 C11.9120423,11.2584582 12.0138656,11.3602816 12.139471,11.3602816 L12.6978087,11.3602816 C12.8234141,11.3602816 12.9252374,11.2584582 12.9252374,11.1328528 C12.9252374,11.0072473 12.8234141,10.905424 12.6978087,10.905424 Z M12.6978087,8.93247945 L12.139471,8.93247945 C12.0138656,8.93247945 11.9120423,9.03430278 11.9120423,9.15990822 C11.9120423,9.28551365 12.0138656,9.38733698 12.139471,9.38733698 L12.6978087,9.38733698 C12.8234141,9.38733698 12.9252374,9.28551365 12.9252374,9.15990822 C12.9252374,9.03430278 12.8234141,8.93247945 12.6978087,8.93247945 Z M12.6978087,6.95726058 L12.139471,6.95726058 C12.0138656,6.95726058 11.9120423,7.05908391 11.9120423,7.18468935 C11.9120423,7.3102948 12.0138656,7.41211813 12.139471,7.41211813 L12.6978087,7.41211813 C12.8234141,7.41211813 12.9252375,7.3102948 12.9252375,7.18468935 C12.9252375,7.05908391 12.8234141,6.95726058 12.6978087,6.95726058 Z M12.6978087,4.98431601 L12.139471,4.98431601 C12.0138656,4.98431601 11.9120423,5.08613934 11.9120423,5.21174478 C11.9120423,5.33735022 12.0138656,5.43917355 12.139471,5.43917355 L12.6978087,5.43917355 C12.8234141,5.43917355 12.9252375,5.33735022 12.9252375,5.21174478 C12.9252375,5.08613934 12.8234141,4.98431601 12.6978087,4.98431601 Z" id="形状结合" fill="#FFFFFF" fill-rule="nonzero"></path>
    </g>
</svg>