<?xml version="1.0" encoding="UTF-8"?>
<svg width="24px" height="24px" viewBox="0 0 24 24" version="1.1" xmlns="http://www.w3.org/2000/svg" xmlns:xlink="http://www.w3.org/1999/xlink">
    <title>库水位</title>
    <g id="库水位" stroke="none" stroke-width="1" fill="none" fill-rule="evenodd">
        <path d="M12,3 C12.1560097,3 12.3056297,3.06321411 12.4159452,3.17573594 C12.5262607,3.28825777 12.5882353,3.44087012 12.5882353,3.60000001 L12.5882353,5.42280001 C16.1443137,5.69880002 19.0207843,8.45560002 19.5568627,12.0004 L21.4117647,12 C21.7366381,12 22,12.2686292 22,12.6 C22,12.9313709 21.7366381,13.2 21.4117647,13.2 L19.6470588,13.2 C19.6470588,17.508 16.2235294,21 12,21 C7.77647059,21 4.35294117,17.508 4.35294117,13.2 L2.5882353,13.2 C2.26336191,13.2 2,12.9313709 2,12.6 C2,12.2686292 2.26336191,12 2.5882353,12 L4.44313726,12 C4.97921569,8.45560002 7.85568629,5.69840001 11.4117647,5.42280001 L11.4117647,3.60000001 C11.4117647,3.44087012 11.4737393,3.28825777 11.5840548,3.17573594 C11.6943703,3.06321411 11.8439903,3 12,3 Z M10.2352941,17 L8.66666668,17 C8.27450981,17 8.07843137,17.2 8.07843137,17.6 L8.08431372,17.714 C8.11960785,18.038 8.31372551,18.2 8.66666668,18.2 L10.2352941,18.2 C10.627451,18.2 10.8235294,18 10.8235294,17.6 L10.8176471,17.486 C10.7823529,17.162 10.5882353,17 10.2352941,17 Z M15.3333333,17 L12.5882353,17 C12.1960784,17 12,17.2 12,17.6 L12.0058824,17.714 C12.0411765,18.038 12.2352941,18.2 12.5882353,18.2 L15.3333333,18.2 C15.7254902,18.2 15.9215686,18 15.9215686,17.6 L15.9156863,17.486 C15.8803922,17.162 15.6862745,17 15.3333333,17 Z M17.2941176,14.2 L7.09803921,14.2 C6.70588235,14.2 6.50980392,14.4 6.50980392,14.8 L6.51568628,14.914 C6.55098039,15.238 6.74509804,15.4 7.09803921,15.4 L17.2941176,15.4 C17.6862745,15.4 17.8823529,15.2 17.8823529,14.8 L17.8764706,14.686 C17.8411765,14.362 17.6470588,14.2 17.2941176,14.2 Z M12,6.60000001 C8.75960785,6.60000001 6.07568627,9.02960002 5.60313727,12.2 L18.3968627,12.2 C17.9243137,9.03 15.2403922,6.60000001 12,6.60000001 Z" id="形状结合" fill="#FFFFFF" fill-rule="nonzero"></path>
    </g>
</svg>