<?xml version="1.0" encoding="UTF-8"?>
<svg width="24px" height="24px" viewBox="0 0 24 24" version="1.1" xmlns="http://www.w3.org/2000/svg" xmlns:xlink="http://www.w3.org/1999/xlink">
    <title>应变计</title>
    <g id="应变计" stroke="none" stroke-width="1" fill="none" fill-rule="evenodd">
        <path d="M11.4253846,11.6625 C11.55,11.8725 11.7715385,12 12,12 C12.2284615,12 12.45,11.8725 12.5746154,11.6625 L13.9592308,9.4125 C14.0976923,9.18000001 14.1115384,8.88750001 13.9938462,8.64000001 C13.8761539,8.39250001 13.6407692,8.24999999 13.3846154,8.24999999 L12.6923077,8.24999999 L12.6923077,3 L11.3076923,3 L11.3076923,8.24999999 L10.6153846,8.24999999 C10.3592308,8.24999999 10.1238461,8.4 10.0061538,8.6475 C9.88846155,8.895 9.90230769,9.1875 10.0407692,9.41999999 L11.4253846,11.6625 Z M17.6561538,11.6625 C17.7807692,11.8725 18.0023077,12 18.2307692,12 C18.4592308,12 18.6807692,11.8725 18.8053846,11.6625 L20.19,9.4125 C20.3284615,9.18000001 20.3423077,8.88750001 20.2246154,8.64000001 C20.1069231,8.39250001 19.8715385,8.24999999 19.6153846,8.24999999 L18.9230769,8.24999999 L18.9230769,3 L17.5384615,3 L17.5384615,8.24999999 L16.8461538,8.24999999 C16.59,8.24999999 16.3546154,8.4 16.2369231,8.6475 C16.1192308,8.895 16.1330769,9.1875 16.2715385,9.41999999 L17.6561538,11.6625 L17.6561538,11.6625 Z M16.9223077,16.845 C15.9669231,18.4875 14.0769231,19.5 12,19.5 C9.92307692,19.5 8.03307692,18.4875 7.0776923,16.845 C6.94577214,16.6322477 6.72579263,16.5032793 6.48923077,16.5 L3,16.5 L3,18 L6.12923076,18 C7.38923077,19.86 9.60461537,21 12,21 C14.3953846,21 16.6176923,19.86 17.8707692,18 L21,18 L21,16.5 L17.5107692,16.5 C17.2753846,16.5 17.0538462,16.635 16.9223077,16.845 L16.9223077,16.845 Z M15.87,13.5 C15.69,13.5 15.5238461,13.575 15.3923077,13.7025 C14.6030769,14.5125 13.3361538,15 12,15 C10.6638462,15 9.39692308,14.5125 8.60769231,13.7025 C8.47716114,13.5731437 8.30690489,13.5009698 8.13,13.5 L3,13.5 L3,15 L7.86692307,15 C8.91230768,15.96 10.4076923,16.5 12,16.5 C13.5923077,16.5 15.0876923,15.96 16.1330769,15 L21,15 L21,13.5 L15.87,13.5 Z M5.19461537,11.6625 C5.31923076,11.8725 5.54076923,12 5.76923076,12 C5.9976923,12 6.21923077,11.8725 6.34384616,11.6625 L7.72846153,9.4125 C7.86692307,9.18000001 7.88076921,8.88750001 7.76307692,8.64000001 C7.64538463,8.39250001 7.41,8.24999999 7.15384616,8.24999999 L6.46153845,8.24999999 L6.46153845,3 L5.07692308,3 L5.07692308,8.24999999 L4.38461537,8.24999999 C4.12846153,8.24999999 3.8930769,8.4 3.77538461,8.6475 C3.65769231,8.895 3.67153846,9.1875 3.81,9.41999999 L5.19461537,11.6625 Z" id="形状" fill="#FFFFFF" fill-rule="nonzero"></path>
    </g>
</svg>