<?xml version="1.0" encoding="UTF-8"?>
<svg width="24px" height="24px" viewBox="0 0 24 24" version="1.1" xmlns="http://www.w3.org/2000/svg" xmlns:xlink="http://www.w3.org/1999/xlink">
    <title>斜测仪</title>
    <g id="斜测仪" stroke="none" stroke-width="1" fill="none" fill-rule="evenodd">
        <path d="M11.3801242,5.09191598 C11.890041,4.87977618 12.4753835,5.12117214 12.6875233,5.63108894 L14.3336252,9.59068592 C14.6339381,9.44210225 14.9567629,9.31226686 15.2991183,9.21460735 C16.5068449,8.85568417 17.9223693,9.06080826 18.7162456,9.23181889 L19.0589521,6.33952174 C19.0938637,6.04433724 19.3550021,5.83482246 19.6432318,5.87054542 C19.931262,5.90639101 20.1357439,6.17382277 20.1008324,6.46908902 L19.669,10.109 L20.4713337,10.2000135 C20.7910037,10.2360226 21.0267265,10.4852659 20.9975604,10.7566623 C20.9683943,11.0280587 20.6856307,11.2188946 20.3658808,11.1829264 L19.552,11.091 L19.346,12.834 L20.1794731,12.9280791 C20.499223,12.9640881 20.7347862,13.2133314 20.7056999,13.484687 C20.6765736,13.7561243 20.3937702,13.9469602 20.0740203,13.9109511 L19.23,13.815 L19.023,15.562 L19.851943,15.6561038 C20.1716928,15.6921129 20.4073358,15.9413561 20.3781697,16.2126708 C20.3491233,16.4841899 20.0663198,16.6749849 19.74657,16.6389758 L18.906,16.544 L18.616,18.995 L20.5282694,18.9950975 L20.5282694,20 L3,20 L3,18.9950975 L5.28118027,18.9950975 L10.8409504,5.63109096 C10.9424113,5.3872097 11.1362432,5.19337738 11.3801242,5.09191598 Z M15.5349208,10.0581435 C15.2251459,10.1457596 14.937522,10.263125 14.6696489,10.3980951 L17.712,17.708 L18.6136261,10.1067685 C17.9203578,9.95256905 16.5992202,9.74145565 15.5349208,10.0581435 Z" id="形状结合" fill="#FFFFFF" fill-rule="nonzero"></path>
    </g>
</svg>