<?xml version="1.0" encoding="UTF-8"?>
<svg width="24px" height="24px" viewBox="0 0 24 24" version="1.1" xmlns="http://www.w3.org/2000/svg" xmlns:xlink="http://www.w3.org/1999/xlink">
    <title>气象</title>
    <g id="气象" stroke="none" stroke-width="1" fill="none" fill-rule="evenodd">
        <path d="M18.9249983,9.80627103 L20.0512949,9.15865046 C20.3610265,8.98970597 20.4736562,8.59550215 20.2765543,8.28577057 C20.1076098,7.976039 19.713406,7.86340933 19.4036744,8.06051125 L18.2773777,8.70813181 C17.9676462,8.8770763 17.8550165,9.27128013 18.0521184,9.5810117 C18.2210629,9.89074327 18.6152667,10.0033729 18.9249983,9.80627103 Z M15.2926917,7.49736293 C15.6305807,7.58183518 15.9966271,7.38473327 16.0810993,7.04684428 L16.4189883,5.80791798 C16.5034605,5.47002899 16.3063586,5.10398259 15.9684696,5.01951034 C15.6305807,4.93503809 15.2645343,5.13214 15.180062,5.47002899 L14.842173,6.70895529 C14.7577008,7.04684428 14.9548027,7.38473327 15.2926917,7.49736293 Z M20.529971,12.8754293 L19.2910447,12.5375404 C18.9531557,12.4530681 18.5871093,12.65017 18.5026371,12.988059 C18.4181648,13.325948 18.6152667,13.6919944 18.9531557,13.7764667 L20.192082,14.1143556 C20.529971,14.1988279 20.8960174,14.001726 20.9804897,13.663837 C21.0649619,13.325948 20.86786,12.9599016 20.529971,12.8754293 Z M11.0127645,7.69446484 C11.181709,8.00419641 11.5759128,8.11682608 11.8856444,7.91972417 C12.1953759,7.75077967 12.3080056,7.35657585 12.1109037,7.04684428 L11.4632831,5.92054764 C11.2943386,5.61081607 10.9001348,5.49818641 10.5904032,5.69528832 C10.2806717,5.86423281 10.168042,6.25843663 10.3651439,6.56816821 L11.0127645,7.69446484 L11.0127645,7.69446484 Z M17.686072,9.80627103 C16.5597754,7.86340933 14.0537654,7.18763136 12.1109037,8.31392799 C11.519598,8.65181698 11.0409219,9.13049305 10.6748755,9.69364136 L10.505931,9.69364136 C8.14070805,9.69364136 6.16968895,11.3549289 5.69101288,13.5793647 C4.02972535,13.7483092 2.84711388,15.2688097 3.01605838,16.9019398 C3.15684546,18.4224403 4.45208658,19.6050517 5.97258704,19.6050517 L14.5605989,19.6050517 C16.4471457,19.6050517 17.9958036,18.0563939 17.9958036,16.1416896 C17.9958036,15.4377542 17.7705443,14.7901336 17.4326553,14.2551427 C18.36185,12.988059 18.5026371,11.2422992 17.686072,9.80627103 L17.686072,9.80627103 Z M17.1173334,13.78951 C16.9840001,13.78951 16.9840001,13.78951 17.1173334,13.78951 C16.9840001,13.78951 16.9840001,13.78951 17.1173334,13.78951 Z M12.0827463,9.97521552 C12.2798482,9.74995619 12.5051075,9.5810117 12.7303668,9.44022462 C14.0537654,8.67997439 15.7713677,9.13049305 16.531618,10.4538916 C17.0666089,11.3267715 17.0666089,12.4249107 16.5034605,13.2977906 C16.0810993,13.0162164 15.5742658,12.7909571 15.0392749,12.7346423 C14.504284,11.4394011 13.4343022,10.4257342 12.0827463,9.97521552 L12.0827463,9.97521552 Z" id="形状" fill="#FFFFFF" fill-rule="nonzero"></path>
    </g>
</svg>