<?xml version="1.0" encoding="UTF-8"?>
<svg width="24px" height="24px" viewBox="0 0 24 24" version="1.1" xmlns="http://www.w3.org/2000/svg" xmlns:xlink="http://www.w3.org/1999/xlink">
    <title>水情</title>
    <g id="水情" stroke="none" stroke-width="1" fill="none" fill-rule="evenodd">
        <path d="M14.251,3 C14.3516037,3 14.4505971,3.02526434 14.539,3.07328571 C14.629,3.12214285 14.7061429,3.19157143 14.7652857,3.27771429 C14.8205714,3.34457144 15.2281428,3.84857143 15.817,4.63414285 C16.3312857,5.32199999 17.1065714,6.39171428 17.878,7.57585715 C18.6275714,8.70728572 19.3012857,9.89528572 19.8927143,11.1308571 C20.4957143,12.4242857 20.8004286,13.4875714 20.8004286,14.2885714 C20.8004286,17.9104286 17.8895714,20.8585714 14.251,21 C12.6727968,20.9402102 11.1638198,20.3365286 9.97985715,19.2912857 C9.60700001,19.398 9.22514287,19.4584286 8.84071429,19.4751428 C6.151,19.3645714 4,17.0657143 4,14.2435714 C4,13.6174286 4.225,12.7881428 4.67114285,11.7801429 C5.10571429,10.8197143 5.60199999,9.894 6.15871428,9.00814285 C6.86575739,7.86884388 7.62381296,6.76200553 8.43057143,5.69099999 L8.46014287,5.65242857 C8.50142839,5.58641578 8.55840756,5.5316451 8.62600001,5.493 C8.75914383,5.41733522 8.92228475,5.41733522 9.05542857,5.493 C9.12228572,5.53157142 9.17885714,5.58557143 9.22128571,5.65242857 C9.26242857,5.70385715 9.562,6.09985714 9.99785715,6.70928572 C10.1118571,6.87042857 10.3201429,7.15928572 10.6227143,7.57585715 C10.9372857,7.119 11.2638571,6.64671428 11.6024286,6.159 L11.7952857,5.88385714 C12.1462857,5.38114285 12.4895714,4.89385714 12.685,4.63414285 C13.2738572,3.84857143 13.6814286,3.34457142 13.7367143,3.27771429 C13.7953191,3.1925174 13.8733153,3.12245296 13.9642857,3.07328571 C14.0523059,3.02547128 14.1508317,3.00028757 14.251,3 L14.251,3 Z M18.094,14.619 C17.7198571,14.6087143 17.3907143,14.9005714 17.3367143,15.3055714 C17.0898572,17.1917143 16.4238571,17.8937143 15.1895714,17.7522857 C14.7807143,17.706 14.413,18.0222857 14.3692857,18.462 C14.3255714,18.8991428 14.6225714,19.2938571 15.0327143,19.3401428 C17.1541429,19.5818571 18.4655714,18.1958571 18.8165714,15.528 C18.8744286,15.0908571 18.589,14.6871429 18.1814286,14.6267143 L18.094,14.619 Z M8.84071429,7.60285714 L8.81628572,7.63628571 C8.44857143,8.15442857 7.8957143,8.96057143 7.3467143,9.85157143 C6.82681578,10.6793328 6.36292123,11.540974 5.95814287,12.4307143 C5.47600001,13.5235714 5.42328572,14.061 5.42328572,14.2435714 C5.42328572,16.2094286 6.90185714,17.8178571 8.80214285,17.9477143 C8.08371111,16.8627076 7.70132352,15.5898713 7.70285715,14.2885714 C7.70285715,13.4875714 8.00757143,12.4242857 8.60928572,11.1308571 C8.96157144,10.3864286 9.34728572,9.66257143 9.76642856,8.95928571 C9.47419969,8.51347252 9.17415331,8.07283296 8.86642858,7.63757142 L8.84071429,7.60414285 L8.84071429,7.60285714 Z" id="形状" fill="#FFFFFF" fill-rule="nonzero"></path>
    </g>
</svg>