<?xml version="1.0" encoding="UTF-8"?>
<svg width="24px" height="24px" viewBox="0 0 24 24" version="1.1" xmlns="http://www.w3.org/2000/svg" xmlns:xlink="http://www.w3.org/1999/xlink">
    <title>水质</title>
    <g id="水质" stroke="none" stroke-width="1" fill="none" fill-rule="evenodd">
        <path d="M12.0160804,17.3978073 C13.3280366,17.4025222 14.5864849,16.9040628 15.5063065,16.0153282 C16.4362506,15.1166962 16.9568927,13.9066818 16.955832,12.6465174 C16.955832,10.0184309 15.0221845,7.32014215 12.0160804,3 C9.00334453,7.32014213 7.07633045,10.020231 7.07633045,12.6465174 C7.07727786,13.911059 7.59929592,15.1233989 8.52585432,16.0153282 C9.44567595,16.9040628 10.7041243,17.4025222 12.0160804,17.3978073 L12.0160804,17.3978073 Z M11.9791318,6.06100072 C12.3760929,6.65052012 12.5949425,7.33634268 12.6119958,8.04016583 C12.6119958,10.3793428 10.1203306,10.7744558 10.1203306,9.3344084 C10.1563318,8.40017766 11.3832164,6.9268292 11.9791318,6.05830063 L11.9791318,6.06100072 Z M12.0170278,20.9978921 C9.8209518,20.9978921 6.69642257,20.4578744 5.2459513,18.8738222 C5.84568648,18.5445154 6.4817473,18.2789081 7.14264854,18.0817962 C7.9612032,18.621814 9.63431374,19.1978329 12.0160804,19.1978329 C14.3978471,19.1978329 16.0709576,18.6218139 16.9264609,18.0817962 C17.587747,18.2798027 18.225348,18.5462115 18.8269478,18.8765223 C17.3395279,20.4605745 14.2149986,21.0005922 12.0189226,21.0005922 L12.0160804,20.9978921 L12.0170278,20.9978921 Z M18.6725214,11.0273641 C19.2693841,10.0913333 20.3086833,10.5233475 20.8335436,9.65931909 C21.4664076,8.65128592 20.1637309,7.60725158 19.1234844,8.5072812 C18.5626228,9.01849802 18.4517769,9.98332975 18.6725214,11.0273641 Z M4.87362262,8.50278104 C3.86937732,7.56675025 2.5306994,8.61078459 3.16356343,9.65481895 C3.72063534,10.5179473 4.72582803,10.0868332 5.3236382,11.022864 C5.58038394,9.98332975 5.469538,9.018498 4.87362262,8.5072812 L4.87362262,8.50278104 L4.87362262,8.50278104 Z" id="形状" fill="#FFFFFF" fill-rule="nonzero"></path>
    </g>
</svg>