<?xml version="1.0" encoding="UTF-8"?>
<svg width="24px" height="24px" viewBox="0 0 24 24" version="1.1" xmlns="http://www.w3.org/2000/svg" xmlns:xlink="http://www.w3.org/1999/xlink">
    <title>渗压</title>
    <g id="渗压" stroke="none" stroke-width="1" fill="none" fill-rule="evenodd">
        <path d="M12,7.329 C12.4438615,7.329 12.8121721,7.68 12.8121721,8.103 L12.8121721,17.913 L12.8593914,17.94 C13.5393494,18.309 13.8604407,19.047 13.6810073,19.776 C13.4637985,20.505 12.7932844,21 12.0094439,21 C11.2350472,21 10.5456453,20.496 10.3378804,19.776 C10.1395593,19.056 10.4700944,18.3 11.1406086,17.94 L11.1878279,17.913 L11.1878279,8.103 C11.1878279,7.68 11.5561385,7.329 12,7.329 Z M12.1416579,3 C13.4921301,3 14.7670514,3.486 15.7397692,4.377 C16.7408185,5.304 17.316894,6.537 17.3546695,7.86 L17.3546695,17.616 C17.3546695,18.138 17.798531,18.57 18.3557188,18.57 C18.9034627,18.57 19.3567681,18.147 19.3567681,17.616 L19.3567681,16.77 C19.3567681,16.347 19.7250787,15.996 20.1689402,15.996 C20.6128017,15.996 20.9811123,16.338 20.9905561,16.77 L20.9905561,17.625 C20.9905561,19.002 19.8100735,20.127 18.3651626,20.127 C16.9202518,20.127 15.7397692,19.002 15.7397692,17.625 L15.7397692,14.943 L15.6453305,14.943 C15.201469,14.943 14.8331584,14.592 14.8331584,14.169 C14.8331584,13.746 15.201469,13.395 15.6453305,13.395 L15.7397692,13.395 L15.7397692,12.351 L15.6453305,12.351 C15.201469,12.351 14.8331584,12 14.8331584,11.577 C14.8331584,11.154 15.201469,10.803 15.6453305,10.803 L15.7397692,10.803 L15.7397692,9.759 L15.6453305,9.759 C15.201469,9.759 14.8331584,9.408 14.8331584,8.985 C14.8331584,8.562 15.201469,8.211 15.6453305,8.211 L15.7397692,8.211 L15.7397692,7.869 C15.6642183,6.006 14.0682057,4.548 12.1133263,4.548 L11.792235,4.548 C10.8761805,4.548 10.0167891,4.872 9.36516264,5.457 C8.67576076,6.078 8.27911857,6.951 8.27911857,7.851 L8.27911857,8.193 L8.37355719,8.193 C8.81741868,8.193 9.18572928,8.544 9.18572928,8.967 C9.18572928,9.39 8.81741868,9.741 8.37355719,9.741 L8.27911857,9.741 L8.27911857,10.794 L8.37355719,10.794 C8.81741868,10.794 9.18572928,11.145 9.18572928,11.568 C9.18572928,11.991 8.81741868,12.342 8.37355719,12.342 L8.27911857,12.342 L8.27911857,13.386 L8.37355719,13.386 C8.81741868,13.386 9.18572928,13.737 9.18572928,14.16 C9.18572928,14.583 8.81741868,14.934 8.37355719,14.934 L8.27911857,14.934 L8.27911857,17.616 C8.27911857,18.993 7.09863589,20.118 5.65372508,20.118 C4.20881427,20.118 3.02833158,18.993 3.02833158,17.616 L3.02833158,16.77 C3.02833158,16.347 3.39664218,15.996 3.84050367,15.996 C4.28436516,15.996 4.65267576,16.347 4.65267576,16.77 L4.65267576,17.634 C4.65267576,18.156 5.10598111,18.588 5.65372508,18.588 C6.20146905,18.588 6.6547744,18.165 6.6547744,17.634 L6.6547744,7.869 C6.6547744,5.205 8.93074502,3.018 11.7450157,3 Z M20.1878279,7.329 C20.6316894,7.329 21,7.671 21,8.103 L21,13.296 C21,13.737 20.6316894,14.088 20.1878279,14.088 C19.7439664,14.088 19.3756558,13.737 19.3756558,13.314 L19.3756558,8.103 C19.3756558,7.68 19.7439664,7.329 20.1878279,7.329 Z M3.81217209,7.329 C4.25603358,7.329 4.62434418,7.68 4.62434418,8.103 L4.62434418,13.287 C4.63378804,13.503 4.55823715,13.701 4.40713536,13.845 C4.25603358,13.998 4.03882476,14.079 3.81217209,14.079 C3.3683106,14.079 3,13.737 3,13.314 L3,8.103 C3,7.68 3.3683106,7.329 3.81217209,7.329 Z" id="形状结合" fill="#FFFFFF" fill-rule="nonzero"></path>
    </g>
</svg>