<?xml version="1.0" encoding="UTF-8"?>
<svg width="24px" height="24px" viewBox="0 0 24 24" version="1.1" xmlns="http://www.w3.org/2000/svg" xmlns:xlink="http://www.w3.org/1999/xlink">
    <title>渗流量</title>
    <g id="渗流量" stroke="none" stroke-width="1" fill="none" fill-rule="evenodd">
        <path d="M20.3579404,4 C20.7096774,4 21,4.27263616 21,4.61476779 L21,19.3852322 C21,19.722018 20.7096774,20 20.3579404,20 L3.64205955,20 C3.29032258,20 3,19.722018 3,19.3852322 L3,17.9632476 C3,17.6264617 3.28473946,17.3484798 3.64205955,17.3484798 C7.62841191,17.3484798 11.2295285,15.5255596 13.6414392,12.665553 L13.691,12.665 L13.7327366,12.6174407 L13.7470223,12.6174407 C13.7470223,12.6174407 13.7227168,12.6401259 13.6967909,12.6656467 L16.5334988,12.665553 L16.5334988,13.162713 C16.5334988,13.6224524 17.0806452,13.9004343 17.4770472,13.6224524 L19.1184864,12.4837955 C19.4478908,12.2539258 19.4478908,11.7888406 19.1184864,11.5589709 L17.4770472,10.4203141 C17.0862283,10.1476779 16.5334988,10.4149683 16.5334988,10.8800535 L16.5334988,11.3772135 L14.5905707,11.3772135 C15.8746898,9.40995657 16.6563276,7.08987638 16.7065757,4.60407617 C16.7121588,4.27263616 17.0024814,4 17.3486352,4 L20.3579404,4 Z M16.5390819,15.1887738 L16.5390819,15.6859338 L11.3300248,15.6859338 L11.3300248,16.9796191 L16.5390819,16.9796191 L16.5390819,17.4767791 C16.5390819,17.9365185 17.0862283,18.2091547 17.4826303,17.9365185 L19.1240695,16.7978617 C19.4534739,16.5626462 19.4534739,16.097561 19.1240695,15.8676913 L17.4826303,14.7290344 C17.0918114,14.4563983 16.5390819,14.7236886 16.5390819,15.1887738 Z M7.50558312,12.6293001 C7.6754566,12.6293001 7.83828139,12.6943207 7.95781637,12.8098897 L8.78970222,13.606415 L9.62717121,12.8098897 C9.87282879,12.5693284 10.280397,12.5746742 10.5316377,12.8098897 C10.7828784,13.0451052 10.7828784,13.4353491 10.5316377,13.6759105 L9.24751861,14.905446 C9.11910668,15.017708 8.95719601,15.0818577 8.78970222,15.0818577 C8.62220843,15.0818577 8.46029776,15.017708 8.33188585,14.8947544 L7.5,14.0982292 L6.66253101,14.9001002 C6.41129031,15.1406615 6.0093052,15.1406615 5.75806451,14.9001002 L4.47952852,13.6759105 C4.35882894,13.5614565 4.29092187,13.4055528 4.29092187,13.2429001 C4.29092187,13.0802474 4.35882894,12.9243437 4.47952852,12.8098897 C4.5990635,12.6943207 4.76188829,12.6293001 4.93176177,12.6293001 C5.10163525,12.6293001 5.26446004,12.6943207 5.38399502,12.8098897 L6.2158809,13.606415 L7.05334987,12.8098897 C7.17288485,12.6943207 7.33570964,12.6293001 7.50558312,12.6293001 Z M10.0794045,8.93534755 C10.2492779,8.93534755 10.4121027,9.00036813 10.5316377,9.11593718 L11.3635236,9.9124624 L12.2009926,9.11593718 C12.4466501,8.87537587 12.8542184,8.88072167 13.1054591,9.11593718 C13.3566998,9.35115269 13.3566998,9.74139659 13.1054591,9.9819579 L11.82134,11.2114935 C11.692928,11.3237554 11.5310174,11.3879051 11.3635236,11.3879051 C11.1960298,11.3879051 11.0341191,11.3237554 10.9057072,11.2008019 L10.0738213,10.4042766 L9.23635235,11.2008019 C8.98511166,11.4413632 8.58312655,11.4413632 8.33188585,11.2008019 L7.5,10.4042766 L6.66253101,11.2061477 C6.41129031,11.446709 6.0093052,11.446709 5.75806451,11.2061477 L4.47952852,9.9819579 C4.35882894,9.86750394 4.29092187,9.71160028 4.29092187,9.54894754 C4.29092187,9.3862948 4.35882894,9.23039114 4.47952852,9.11593718 C4.5990635,9.00036813 4.76188829,8.93534755 4.93176177,8.93534755 C5.10163525,8.93534755 5.26446004,9.00036813 5.38399502,9.11593718 L6.2158809,9.9124624 L7.05334987,9.11593718 C7.17288485,9.00036813 7.33570964,8.93534755 7.50558312,8.93534755 C7.6754566,8.93534755 7.83828139,9.00036813 7.95781637,9.11593718 L8.78970222,9.9124624 L9.62717121,9.11593718 C9.74670619,9.00036813 9.90953098,8.93534755 10.0794045,8.93534755 Z" id="形状结合" fill="#FFFFFF" fill-rule="nonzero"></path>
    </g>
</svg>