<?xml version="1.0" encoding="UTF-8"?>
<svg width="24px" height="24px" viewBox="0 0 24 24" version="1.1" xmlns="http://www.w3.org/2000/svg" xmlns:xlink="http://www.w3.org/1999/xlink">
    <title>管道</title>
    <g id="管道" stroke="none" stroke-width="1" fill="none" fill-rule="evenodd">
        <path d="M19.7777961,17.4125295 L19.7777961,11.7868241 C19.7779919,11.1518994 19.5258846,10.542917 19.0769645,10.0939179 C18.6280445,9.64491866 18.0191066,9.39270407 17.3841818,9.39278804 L12.5968901,9.39278804 L12.5968901,8.19613914 L11.4002412,8.19613914 L11.4002412,9.39314664 L9.00264024,9.39314664 L9.00264024,6.16071803 L4.21355553,6.16071803 L4.21355553,11.786803 C4.21355553,12.4217278 4.46566424,13.0306702 4.91465553,13.4795981 C5.36364681,13.9285261 5.97262468,14.1806441 6.60754946,14.1804594 L11.3944826,14.1804594 L11.3944826,15.3771084 L12.5911315,15.3771084 L12.5911315,14.180818 L14.9851254,14.180818 L14.9851254,17.3304536 L19.7777961,17.3304536 L19.7777961,17.4132466 L19.7777961,17.4125295 Z M14.520008,18.0400055 L20.2799962,18.0400055 C20.6776433,18.0400055 21,18.3623622 21,18.7600093 C21,19.1576564 20.6776433,19.4800131 20.2799962,19.4800131 L14.520008,19.4800131 C14.1223609,19.4800131 13.8000042,19.1576564 13.8000042,18.7600093 C13.8000042,18.3623622 14.1223609,18.0400055 14.520008,18.0400055 L14.520008,18.0400055 Z M3.7200038,4 L9.47999198,4 C9.8776391,4 10.1999958,4.32235668 10.1999958,4.7200038 C10.1999958,5.11765091 9.8776391,5.44000759 9.47999198,5.44000759 L3.7200038,5.44000759 C3.32235668,5.44000759 3,5.11765091 3,4.7200038 C3,4.32235668 3.32235668,4 3.7200038,4 L3.7200038,4 Z" id="形状" fill="#FFFFFF" fill-rule="nonzero"></path>
    </g>
</svg>