<?xml version="1.0" encoding="UTF-8"?>
<svg width="24px" height="24px" viewBox="0 0 24 24" version="1.1" xmlns="http://www.w3.org/2000/svg" xmlns:xlink="http://www.w3.org/1999/xlink">
    <title>降水量</title>
    <g id="降水量" stroke="none" stroke-width="1" fill="none" fill-rule="evenodd">
        <path d="M5,15.853125 C5,17.840625 6.63125,19.453125 8.65625,19.453125 C10.671875,19.453125 12.3125,17.840625 12.3125,15.853125 C12.3125,13.865625 8.65625,8.653125 8.65625,8.653125 C8.65625,8.653125 5,13.865625 5,15.853125 L5,15.853125 Z M15.140625,11.23125 C16.725,11.23125 18.009375,10.003125 18.009375,8.484375 C18.009375,6.965625 15.140625,3 15.140625,3 C15.140625,3 12.271824,6.975 12.271824,8.484375 C12.2625,10.003125 13.546875,11.23125 15.140625,11.23125 Z M16.959375,14.83125 C16.959375,14.83125 14.86875,17.8125 14.86875,18.946875 C14.86875,20.08125 15.80625,21 16.959375,21 C18.1125,21 19.05,20.08125 19.05,18.946875 C19.05,17.803125 16.959375,14.83125 16.959375,14.83125 Z" id="形状" fill="#FFFFFF" fill-rule="nonzero"></path>
    </g>
</svg>